<?xml version="1.0" standalone="no"?>
<!DOCTYPE svg PUBLIC "-//W3C//DTD SVG 20010904//EN"
 "http://www.w3.org/TR/2001/REC-SVG-20010904/DTD/svg10.dtd">
<svg version="1.0" xmlns="http://www.w3.org/2000/svg"
 width="750.000000pt" height="750.000000pt" viewBox="0 0 750.000000 750.000000"
 preserveAspectRatio="xMidYMid meet">
<metadata>
Created by potrace 1.14, written by Peter Selinger 2001-2017
</metadata>
<g transform="translate(0.000000,750.000000) scale(0.100000,-0.100000)"
fill="#000000" stroke="none">
<path d="M0 3750 l0 -3750 3750 0 3750 0 0 3750 0 3750 -3750 0 -3750 0 0
-3750z m4101 3449 c92 -3 142 -9 152 -18 9 -7 21 -10 26 -7 5 4 12 2 16 -4 3
-5 30 -10 58 -10 29 -1 79 -7 112 -15 33 -8 74 -15 90 -15 17 0 44 -7 60 -16
17 -9 57 -22 90 -30 33 -7 74 -18 90 -25 17 -7 37 -13 45 -14 8 -1 32 -10 54
-19 21 -9 49 -16 62 -16 14 0 41 -11 62 -24 20 -14 70 -34 110 -46 41 -13 76
-29 79 -36 3 -8 12 -14 21 -14 15 0 199 -87 212 -100 3 -3 30 -18 60 -34 30
-16 68 -40 83 -53 16 -12 35 -23 43 -23 8 0 14 -4 14 -9 0 -5 10 -11 23 -15
12 -3 40 -20 62 -39 22 -18 59 -44 83 -57 23 -13 42 -30 42 -37 0 -7 5 -13 11
-13 10 0 68 -40 99 -70 9 -8 28 -24 42 -35 14 -11 44 -37 67 -57 22 -21 44
-38 49 -38 12 0 182 -178 182 -190 0 -6 7 -10 15 -10 8 0 15 -4 15 -10 0 -5
13 -24 29 -42 56 -63 113 -132 151 -182 21 -28 57 -75 80 -105 23 -30 47 -67
52 -83 6 -15 16 -28 23 -28 7 0 18 -12 24 -27 6 -16 20 -41 31 -58 11 -16 23
-38 26 -47 4 -10 10 -18 15 -18 5 0 9 -7 9 -15 0 -8 16 -37 35 -65 19 -27 37
-61 41 -77 4 -15 14 -37 24 -48 9 -11 20 -29 23 -40 12 -42 34 -91 55 -125 12
-19 22 -43 22 -53 0 -11 6 -31 14 -45 23 -45 35 -75 51 -132 9 -30 21 -64 27
-75 14 -26 48 -156 58 -223 5 -29 13 -59 20 -66 6 -8 13 -38 16 -67 7 -81 26
-169 35 -169 4 0 8 -52 8 -116 1 -78 5 -122 13 -132 18 -22 19 -535 1 -553 -9
-9 -13 -46 -13 -111 0 -69 -4 -105 -14 -121 -8 -12 -18 -62 -21 -112 -4 -49
-14 -103 -22 -120 -8 -16 -21 -61 -29 -100 -31 -150 -40 -181 -56 -205 -10
-13 -18 -34 -18 -46 0 -13 -16 -60 -35 -105 -19 -46 -35 -88 -35 -94 0 -6 -18
-47 -40 -90 -22 -43 -40 -85 -40 -93 0 -8 -11 -27 -25 -44 -14 -16 -25 -38
-25 -49 0 -10 -4 -19 -9 -19 -5 0 -14 -12 -20 -27 -11 -30 -70 -135 -80 -143
-3 -3 -15 -23 -26 -45 -11 -22 -25 -46 -32 -52 -6 -7 -33 -45 -59 -85 -26 -40
-52 -77 -59 -83 -6 -5 -31 -39 -55 -75 -45 -68 -489 -520 -510 -520 -7 0 -24
-13 -38 -28 -15 -16 -34 -31 -42 -34 -8 -3 -51 -34 -95 -70 -44 -35 -87 -67
-97 -70 -9 -4 -46 -28 -83 -53 -71 -50 -264 -160 -299 -171 -11 -4 -33 -15
-48 -25 -14 -11 -32 -19 -40 -19 -8 0 -23 -7 -34 -15 -10 -8 -29 -15 -41 -15
-13 0 -23 -4 -23 -10 0 -5 -7 -10 -15 -10 -8 0 -15 -4 -15 -9 0 -5 -17 -12
-37 -15 -33 -6 -111 -38 -165 -66 -9 -5 -36 -12 -60 -16 -24 -3 -61 -14 -83
-24 -22 -10 -61 -21 -87 -25 -26 -3 -50 -10 -53 -16 -4 -5 -21 -9 -40 -9 -19
0 -37 -5 -41 -11 -3 -6 -18 -9 -32 -6 -14 3 -35 -1 -46 -8 -12 -7 -50 -16 -86
-19 -113 -11 -225 -29 -237 -39 -7 -5 -56 -8 -110 -7 -54 2 -105 -1 -114 -4
-9 -4 -72 -5 -140 -1 -68 3 -169 7 -224 8 -55 1 -107 5 -115 9 -16 7 -21 8
-210 28 -63 6 -125 18 -137 26 -12 8 -29 11 -38 8 -8 -4 -21 -2 -28 4 -6 5
-30 12 -52 15 -46 6 -118 25 -155 40 -32 13 -37 15 -85 26 -49 12 -125 38
-185 64 -25 11 -58 26 -75 32 -81 34 -117 50 -195 88 -47 23 -86 45 -88 50 -2
4 -14 7 -26 7 -13 0 -31 9 -41 20 -10 11 -27 20 -37 20 -10 0 -21 7 -24 15 -4
8 -12 15 -19 15 -7 0 -40 18 -73 40 -33 22 -62 40 -66 40 -3 0 -14 7 -23 16
-10 8 -39 29 -65 47 -69 47 -169 123 -200 152 -15 14 -31 25 -36 25 -5 0 -55
44 -110 97 -55 54 -122 119 -148 144 -70 67 -164 169 -164 178 0 4 -12 18 -26
32 -34 32 -124 144 -124 156 0 4 -11 17 -25 27 -14 10 -25 24 -25 31 0 6 -20
40 -45 76 -25 35 -45 68 -45 72 0 5 -11 23 -24 40 -13 18 -38 59 -56 92 -17
33 -38 67 -46 76 -8 8 -14 21 -14 28 0 7 -9 26 -20 41 -11 16 -23 42 -26 59
-4 17 -10 31 -15 31 -4 0 -11 10 -14 23 -12 40 -30 77 -37 77 -5 0 -8 10 -8
23 0 13 -7 32 -15 43 -8 10 -15 29 -15 41 0 12 -10 38 -22 58 -11 20 -25 53
-29 73 -16 75 -32 128 -46 154 -8 16 -18 54 -24 87 -5 32 -16 72 -24 87 -8 16
-15 40 -15 54 0 14 -7 55 -14 91 -8 37 -20 129 -26 205 -6 77 -17 145 -23 153
-17 20 -16 543 1 564 7 8 16 68 21 133 10 128 48 346 61 354 5 3 12 30 15 60
4 30 15 73 25 95 17 39 34 95 49 165 4 19 14 46 23 60 9 14 26 59 38 100 13
41 30 86 39 100 9 14 27 52 40 85 13 33 32 69 42 81 11 11 19 28 19 38 0 9 11
32 25 50 14 18 25 36 25 41 0 4 17 35 38 69 21 34 41 68 45 76 10 22 29 51 54
83 13 16 23 33 23 38 0 13 185 250 242 311 26 27 50 58 53 69 4 10 12 19 20
19 13 0 35 23 84 88 13 18 29 32 34 32 16 0 57 41 57 57 0 7 5 13 11 13 9 0
89 67 188 158 20 19 51 40 69 48 17 8 32 19 32 24 0 6 4 10 9 10 5 0 49 30 98
66 48 37 99 71 113 77 14 6 51 29 83 50 86 57 391 207 421 207 8 0 17 4 20 9
3 4 20 11 37 15 17 3 43 15 59 26 15 11 36 20 45 20 9 0 37 9 63 19 64 26 138
48 192 56 25 4 54 13 66 20 24 16 159 41 294 56 52 6 100 15 108 21 26 22 361
30 753 17z"/>
<path d="M3640 7176 c-3 -3 -87 -12 -185 -21 -192 -16 -319 -36 -425 -65 -36
-10 -84 -21 -108 -24 -24 -4 -51 -10 -60 -15 -9 -5 -57 -22 -107 -36 -49 -15
-108 -36 -131 -46 -22 -10 -48 -19 -58 -19 -10 0 -34 -9 -52 -21 -19 -11 -34
-18 -34 -15 0 4 -21 -5 -47 -19 -27 -14 -55 -25 -64 -25 -9 0 -22 -7 -29 -15
-7 -8 -18 -15 -25 -15 -7 0 -42 -16 -77 -35 -34 -19 -73 -39 -86 -45 -12 -5
-46 -25 -74 -45 -29 -19 -56 -35 -60 -35 -3 0 -41 -24 -83 -52 -43 -29 -87
-60 -100 -68 -84 -56 -135 -93 -135 -99 0 -4 -19 -19 -43 -34 -23 -15 -48 -36
-55 -47 -7 -11 -16 -20 -20 -20 -26 0 -333 -305 -408 -404 -16 -22 -44 -56
-61 -75 -18 -20 -33 -39 -33 -43 0 -3 -20 -31 -45 -61 -25 -31 -45 -58 -45
-61 0 -4 -77 -123 -97 -151 -5 -6 -19 -33 -33 -60 -14 -28 -31 -57 -37 -66
-16 -20 -63 -111 -63 -122 0 -5 -9 -20 -20 -34 -11 -14 -20 -34 -20 -43 0 -10
-6 -23 -13 -29 -8 -6 -19 -30 -27 -53 -7 -24 -18 -52 -26 -63 -8 -11 -14 -26
-14 -35 0 -8 -9 -32 -20 -53 -11 -20 -20 -48 -20 -61 0 -14 -4 -28 -10 -31 -5
-3 -14 -25 -20 -48 -6 -23 -20 -63 -30 -89 -11 -26 -20 -67 -20 -91 0 -30 -5
-47 -14 -50 -14 -5 -19 -27 -30 -130 -2 -20 -9 -44 -16 -52 -7 -8 -15 -56 -18
-108 -2 -50 -9 -98 -14 -104 -17 -21 -27 -210 -27 -488 0 -280 9 -403 30 -416
9 -5 15 -30 16 -66 2 -99 2 -98 13 -87 14 14 20 68 10 84 -4 7 -3 25 3 39 13
30 37 60 37 45 0 -6 32 -11 76 -12 42 -1 80 -4 84 -7 4 -2 34 -8 66 -11 58 -7
83 -7 289 -4 55 1 132 1 170 2 39 0 90 0 115 0 488 4 1104 0 1139 -8 14 -3
295 -7 623 -8 685 -3 649 2 638 -83 -3 -26 -10 -55 -15 -63 -5 -8 -8 -40 -7
-72 2 -43 -4 -68 -22 -104 -14 -27 -22 -52 -20 -56 5 -8 -11 -30 -66 -96 -11
-13 -20 -30 -20 -37 0 -8 -6 -20 -12 -27 -7 -8 -21 -27 -30 -43 -11 -19 -24
-29 -35 -27 -14 3 -15 1 -4 -11 10 -13 8 -18 -13 -32 -18 -12 -26 -26 -26 -46
0 -22 -6 -30 -26 -35 -22 -6 -24 -10 -19 -35 5 -21 2 -31 -9 -35 -8 -3 -18
-14 -21 -23 -4 -13 -13 -17 -30 -13 -25 4 -24 6 -41 -76 -2 -12 -16 -27 -29
-32 -14 -5 -25 -14 -25 -20 0 -18 -15 -11 -25 12 -15 34 -51 35 -59 2 -8 -30
-8 -30 24 -42 l24 -9 -29 -19 c-17 -11 -47 -19 -72 -19 -41 0 -59 -17 -30 -29
16 -7 -20 -36 -45 -36 -11 0 -28 -9 -39 -19 -11 -10 -39 -22 -62 -25 -64 -9
-76 -12 -83 -18 -3 -4 -16 -3 -28 1 -11 5 -30 5 -41 1 -11 -4 -43 -5 -71 -4
-40 2 -59 -2 -77 -17 -14 -10 -30 -19 -37 -19 -6 0 -8 -4 -5 -10 3 -6 24 -10
46 -10 40 0 52 -13 23 -24 -24 -9 -83 -7 -103 4 -13 6 -17 17 -14 34 8 38 -30
57 -101 52 -31 -2 -62 -8 -69 -13 -26 -20 -79 -36 -85 -26 -12 17 -48 21 -67
7 -23 -17 -69 -18 -97 -3 -14 8 -23 8 -31 0 -6 -6 -27 -11 -46 -11 -22 0 -43
-8 -58 -22 -22 -21 -24 -21 -58 -5 -19 9 -35 21 -35 27 0 5 -7 10 -15 10 -8 0
-15 -7 -15 -15 0 -18 -64 -49 -85 -41 -8 3 -15 0 -15 -6 0 -9 -3 -9 -11 -1 -9
9 -16 9 -30 0 -14 -8 -21 -9 -30 0 -8 8 -18 4 -36 -13 -27 -25 -53 -32 -53
-14 0 6 -8 10 -19 10 -10 0 -24 7 -31 15 -18 22 -49 18 -59 -7 -7 -19 -24 -26
-112 -44 -57 -12 -114 -25 -126 -29 -19 -6 -23 -4 -23 13 0 25 -59 38 -76 16
-6 -8 -21 -14 -33 -14 -14 0 -21 -6 -21 -20 0 -21 -15 -27 -25 -10 -11 18 -35
11 -35 -10 0 -23 -18 -27 -26 -5 -4 8 -12 15 -20 15 -7 0 -21 14 -31 30 -9 17
-26 33 -36 36 -12 4 -17 12 -14 25 3 10 -1 23 -9 30 -13 11 -20 59 -9 59 3 0
15 -9 27 -20 16 -15 25 -17 35 -9 8 8 17 8 26 2 6 -5 23 -9 37 -7 32 3 90 26
90 36 0 8 -30 12 -63 10 -10 -1 -37 2 -60 7 -30 7 -44 7 -49 -2 -6 -9 -11 -8
-18 3 -9 13 -11 13 -20 0 -8 -12 -10 -11 -10 7 0 17 8 24 36 29 42 8 54 29 30
52 -16 16 -18 16 -36 -6 -11 -13 -25 -20 -33 -16 -12 4 -14 0 -10 -15 4 -17 2
-20 -11 -15 -9 3 -16 11 -16 18 0 6 -14 20 -30 31 -17 11 -28 26 -25 33 2 6 0
12 -6 12 -6 0 -7 5 -4 11 4 5 0 18 -8 27 -8 9 -17 30 -21 45 -6 24 -3 30 14
34 23 6 27 33 5 33 -8 0 -15 -6 -15 -14 0 -7 -9 -16 -20 -19 -34 -9 -21 -101
15 -105 6 -1 13 -14 17 -29 14 -59 54 -143 79 -163 3 -3 16 -24 29 -47 13 -24
27 -43 32 -43 4 0 8 -8 8 -19 0 -10 8 -29 18 -42 10 -13 22 -31 26 -39 15 -32
32 -57 59 -85 15 -17 27 -33 27 -37 0 -5 7 -8 15 -8 9 0 15 -9 15 -21 0 -12 8
-23 20 -26 11 -3 17 -10 14 -15 -3 -5 3 -19 14 -31 11 -12 32 -42 45 -65 30
-53 184 -222 220 -241 22 -12 29 -11 54 6 15 11 53 30 83 42 30 13 73 31 96
42 22 10 45 19 51 19 6 0 16 7 23 15 7 8 19 15 26 15 8 0 58 21 111 46 54 25
114 53 133 61 86 38 117 52 150 66 51 21 91 39 253 110 21 9 44 17 51 17 7 0
34 11 60 25 26 14 56 25 67 25 12 0 33 6 47 14 34 18 215 76 238 76 3 0 -3 -9
-13 -19 -10 -11 -38 -22 -63 -26 -25 -3 -50 -13 -56 -21 -6 -7 -26 -17 -45
-20 -19 -4 -45 -13 -59 -20 -14 -7 -54 -25 -90 -40 -36 -15 -83 -35 -105 -44
-22 -10 -56 -25 -75 -33 -52 -21 -83 -36 -100 -46 -8 -5 -44 -21 -80 -36 -36
-14 -72 -30 -80 -36 -8 -5 -22 -12 -30 -15 -8 -3 -32 -14 -52 -24 -20 -11 -43
-20 -51 -20 -8 0 -22 -9 -32 -20 -10 -11 -26 -20 -36 -20 -18 0 -88 -34 -130
-63 -13 -10 -33 -17 -44 -17 -11 0 -35 -9 -53 -20 -18 -11 -39 -20 -47 -20 -7
0 -20 -6 -27 -13 -7 -7 -34 -20 -60 -27 -31 -9 -48 -20 -48 -30 1 -21 294
-270 319 -270 5 0 15 -7 22 -16 8 -9 45 -37 84 -62 38 -25 93 -60 122 -79 28
-18 55 -33 60 -33 5 0 25 -11 44 -26 35 -26 213 -115 309 -154 30 -12 69 -28
85 -36 64 -29 159 -64 176 -64 10 0 30 -6 46 -14 51 -25 167 -57 338 -92 39
-8 99 -21 135 -29 82 -18 344 -45 438 -45 71 0 93 10 73 33 -14 18 -18 516 -4
542 7 12 13 158 17 360 6 313 14 438 32 466 4 6 8 59 9 118 3 135 12 183 34
179 10 -2 17 -15 18 -38 2 -19 8 -65 14 -102 11 -59 10 -73 -5 -107 -24 -53
-18 -77 19 -74 29 2 45 -10 45 -34 0 -19 -48 -16 -59 4 -8 14 -10 11 -16 -18
-11 -59 -3 -95 20 -91 55 9 60 7 63 -19 4 -36 -20 -54 -47 -37 -12 7 -21 16
-21 20 0 5 -7 8 -16 8 -13 0 -15 -10 -10 -62 3 -35 8 -151 11 -258 6 -198 10
-230 28 -241 6 -4 5 -18 -2 -40 -9 -28 -10 -154 -1 -154 4 0 8 -75 13 -270 l5
-180 38 -3 c21 -2 48 2 60 9 l23 12 -23 18 c-30 24 -38 64 -17 83 19 17 65 22
104 11 30 -8 64 -59 47 -70 -18 -11 -6 -40 20 -46 35 -8 206 9 260 26 25 7 74
17 110 21 36 3 76 11 90 16 22 9 103 31 215 59 22 5 54 16 72 24 17 8 36 15
42 15 16 0 100 30 158 56 28 13 57 24 63 24 7 0 24 6 38 14 15 8 88 44 162 81
74 36 160 82 190 100 30 19 62 38 70 42 8 4 40 24 70 45 30 21 61 38 68 38 6
0 12 4 12 8 0 5 26 26 58 48 31 21 59 42 60 47 2 4 8 7 13 7 5 0 17 8 27 17
11 10 52 45 93 78 107 87 210 187 206 199 -2 6 -20 11 -40 12 -21 1 -45 8 -55
18 -10 9 -24 16 -32 16 -7 0 -51 18 -97 40 -47 22 -95 40 -108 40 -12 0 -28 6
-34 14 -7 8 -25 18 -41 21 -16 3 -34 13 -41 21 -6 8 -18 14 -26 14 -8 0 -39
11 -69 25 -30 14 -60 25 -66 25 -6 0 -19 6 -27 13 -9 8 -52 28 -96 46 -44 18
-89 39 -100 47 -11 8 -32 14 -47 14 -16 0 -28 4 -28 10 0 5 -21 16 -47 24 -27
8 -73 24 -103 36 -89 35 -183 70 -215 80 -16 6 -43 16 -60 24 -16 8 -52 18
-80 22 -27 4 -54 13 -60 19 -5 7 -27 15 -49 18 -21 4 -46 13 -56 22 -9 8 -27
15 -41 15 -13 1 -42 9 -64 20 -22 11 -45 19 -50 20 -6 0 -18 9 -28 20 -9 11
-29 20 -45 20 -16 0 -37 9 -47 20 -10 11 -23 20 -28 20 -5 0 -29 17 -51 38
-23 22 -49 43 -57 48 -8 5 -26 25 -41 44 -14 19 -40 51 -58 70 -18 19 -38 49
-46 66 -8 18 -23 34 -36 37 -21 6 -23 11 -20 47 3 28 -1 47 -12 59 -20 22 -34
111 -18 111 7 0 14 -12 18 -27 3 -16 16 -50 29 -78 13 -27 28 -61 34 -75 26
-58 193 -264 224 -275 9 -3 29 -17 45 -29 42 -35 169 -99 240 -120 12 -4 22
-11 22 -15 0 -4 19 -14 43 -20 23 -7 58 -19 77 -26 19 -8 58 -16 85 -19 28 -3
68 -14 90 -25 21 -12 50 -21 63 -21 12 0 35 -6 50 -13 15 -8 65 -24 112 -36
47 -13 99 -29 115 -37 43 -19 87 -35 111 -40 33 -6 92 -32 99 -44 3 -5 19 -10
35 -10 15 0 30 -6 33 -14 3 -7 25 -18 50 -24 24 -7 50 -18 57 -27 7 -8 25 -15
40 -15 15 0 30 -7 33 -14 3 -8 22 -18 43 -22 20 -4 65 -22 101 -40 35 -19 70
-34 76 -34 7 0 29 -9 50 -20 20 -11 45 -20 55 -20 9 0 38 -11 64 -25 26 -14
54 -25 62 -25 8 0 32 -11 52 -25 45 -31 55 -31 81 -2 12 12 42 42 68 67 62 60
148 166 174 215 12 23 20 52 17 70 -2 16 -1 22 1 13 2 -10 10 -18 16 -18 13 0
57 60 57 78 0 6 9 16 20 22 11 6 20 17 20 24 0 7 9 23 20 36 11 13 32 47 46
77 15 29 30 53 34 53 16 0 62 108 55 129 -9 30 -24 26 -31 -8 -4 -17 -12 -28
-22 -27 -9 1 -19 -12 -24 -33 -7 -25 -12 -31 -18 -21 -5 8 -4 22 1 32 13 24 2
40 -21 33 -10 -3 -21 -1 -25 5 -3 6 -10 8 -15 5 -5 -3 -13 3 -19 12 -9 17 -10
17 -17 -2 -4 -11 -13 -24 -21 -28 -22 -13 -15 -37 9 -34 17 1 24 -4 26 -21 2
-13 -2 -30 -8 -38 -10 -11 -10 -14 1 -14 23 0 37 14 40 39 2 14 10 26 17 29
22 7 15 -82 -8 -103 -11 -10 -20 -22 -20 -27 0 -4 -9 -17 -20 -28 -22 -22 -21
-24 -25 40 -1 14 -2 35 -3 48 -1 12 -6 22 -12 22 -5 0 -10 -10 -11 -22 l0 -23
-9 22 c-5 13 -18 23 -29 23 -11 0 -27 7 -36 16 -8 9 -33 18 -55 21 -22 3 -45
12 -51 19 -6 8 -16 14 -21 14 -5 0 -16 7 -24 15 -14 13 -68 21 -118 16 -10 0
-25 4 -32 10 -11 9 -21 8 -44 -1 -24 -10 -32 -10 -44 3 -8 8 -13 17 -10 20 8
8 -15 47 -28 47 -6 0 -17 -8 -24 -17 -10 -15 -15 -16 -25 -5 -7 6 -25 12 -40
12 -15 0 -40 7 -56 15 -15 8 -43 20 -60 27 -34 13 -43 32 -20 41 6 3 -18 6
-55 6 -36 1 -73 4 -82 7 -13 5 -16 -1 -16 -30 0 -36 13 -48 23 -22 9 23 74 -1
81 -30 9 -36 -13 -77 -38 -70 -12 3 -31 6 -43 6 -13 0 -23 4 -23 10 0 5 7 7
15 4 10 -4 15 0 15 11 0 11 -5 15 -15 11 -9 -3 -15 0 -15 8 0 16 -34 48 -43
40 -3 -4 -20 5 -36 19 -27 22 -33 24 -70 14 -23 -6 -41 -17 -41 -24 0 -7 -3
-13 -8 -13 -12 0 -34 -58 -27 -70 11 -18 35 9 35 41 0 23 4 27 23 26 12 -1 27
-7 32 -13 6 -7 23 -14 39 -16 24 -2 31 -9 38 -37 7 -24 18 -36 39 -44 16 -6
29 -15 29 -19 0 -14 31 -8 36 7 7 18 32 19 53 2 27 -22 70 -37 76 -26 4 5 17
1 32 -11 25 -19 27 -19 45 -3 19 17 21 17 50 0 36 -21 68 -22 68 -3 0 25 24
24 37 -2 7 -13 13 -31 13 -38 0 -8 10 -14 23 -14 13 0 28 -5 35 -12 10 -10 11
-5 6 20 -5 25 -3 32 10 32 9 0 16 5 16 10 0 6 9 10 20 10 14 0 20 -7 20 -24 0
-13 10 -36 22 -51 18 -23 26 -26 57 -21 26 4 41 1 56 -12 11 -10 37 -26 58
-35 37 -17 37 -17 27 2 -30 56 11 86 46 34 53 -79 58 -109 17 -98 -15 3 -31
12 -35 18 -5 8 -8 4 -8 -9 0 -30 -28 -53 -41 -33 -12 19 -11 49 1 49 6 0 10 5
10 12 0 9 -3 9 -12 0 -7 -7 -20 -12 -30 -12 -17 0 -38 -27 -38 -49 0 -6 12 -8
30 -4 30 5 30 5 19 -19 -10 -22 -17 -26 -57 -25 -54 0 -72 -22 -20 -25 18 0
41 -1 51 0 9 1 17 -2 17 -6 0 -16 50 -6 64 13 14 20 15 19 25 -8 14 -35 14
-47 1 -47 -5 0 -10 -7 -10 -16 0 -8 -4 -13 -9 -10 -5 3 -14 -1 -21 -9 -16 -19
-36 -19 -44 0 -3 8 -12 12 -20 9 -8 -3 -32 0 -53 7 -21 7 -49 12 -62 11 -14
-1 -36 6 -50 15 -17 11 -50 18 -94 19 -48 2 -74 8 -87 19 -10 9 -24 14 -29 10
-18 -11 -51 5 -51 24 0 28 110 55 125 31 9 -15 30 -12 54 9 19 16 19 20 6 31
-10 8 -29 10 -53 6 -30 -5 -40 -2 -53 16 -16 20 -17 20 -64 4 -58 -19 -55 -19
-55 -2 0 19 -55 46 -92 46 -26 0 -29 3 -22 23 3 12 11 24 15 25 15 6 10 42 -6
49 -17 6 -56 -24 -54 -41 3 -25 -2 -35 -21 -41 -18 -6 -66 17 -81 39 -4 5 -12
5 -18 1 -7 -4 -17 -3 -24 2 -7 5 -32 15 -57 22 -25 7 -58 19 -75 26 -16 7 -44
10 -62 8 -25 -4 -32 -1 -38 16 -3 12 -12 21 -18 21 -7 0 -20 9 -30 20 -9 11
-27 20 -39 20 -13 0 -50 20 -82 45 -33 24 -63 42 -68 39 -12 -8 -49 6 -43 16
3 5 1 11 -4 15 -9 5 -71 -69 -71 -84 1 -26 23 -36 75 -34 50 2 55 0 50 -17 -5
-15 1 -19 42 -23 99 -10 153 -32 189 -75 14 -17 23 -22 28 -14 11 19 40 14 54
-9 9 -13 19 -18 30 -14 10 4 22 -2 32 -15 13 -18 20 -19 43 -11 20 8 27 7 27
-2 0 -6 7 -3 15 7 19 25 22 21 25 -34 4 -69 3 -72 -19 -60 -11 5 -27 7 -35 4
-9 -4 -22 -2 -29 4 -14 12 -107 32 -145 32 -15 0 -45 9 -66 21 -21 11 -47 19
-56 16 -21 -5 -83 5 -180 31 -41 11 -102 26 -135 33 -33 6 -70 18 -83 26 -13
8 -51 19 -84 24 -33 5 -73 16 -89 24 -15 8 -38 15 -49 15 -13 0 -24 8 -27 20
-4 13 -14 20 -30 20 -26 0 -83 26 -83 38 0 9 -70 42 -88 42 -6 0 -22 11 -36
24 -26 23 -33 46 -19 60 9 9 13 38 7 48 -11 18 -35 -15 -29 -39 9 -37 -30 -31
-44 7 -5 16 -16 30 -23 30 -19 0 -94 94 -117 148 -6 12 -15 22 -21 22 -6 0
-17 15 -25 34 -8 19 -19 37 -25 41 -5 3 -10 15 -10 26 0 10 -8 28 -17 38 -10
10 -29 36 -43 57 -14 20 -42 55 -62 77 -23 23 -38 49 -38 64 0 13 -7 31 -15
39 -8 9 -15 25 -15 37 0 13 -7 33 -16 45 -9 13 -13 31 -9 43 4 11 2 26 -4 33
-12 14 -32 136 -24 149 2 4 -1 7 -6 7 -6 0 -11 11 -11 24 0 22 2 23 38 16 56
-12 258 -18 327 -10 11 1 184 2 385 3 492 0 513 1 527 10 6 4 30 3 52 -2 23
-5 43 -5 46 0 3 5 54 5 113 1 59 -4 152 -6 207 -6 55 1 186 2 290 2 105 0 199
0 210 0 11 0 54 2 95 6 41 3 80 6 85 6 6 0 197 -3 426 -6 369 -5 418 -4 432
10 17 17 32 22 23 7 -3 -4 1 -17 8 -27 9 -11 11 -25 6 -34 -9 -18 -1 -120 10
-120 13 0 20 29 20 83 0 29 7 79 16 112 24 91 32 656 11 780 -9 50 -19 136
-23 193 -5 69 -13 116 -25 140 -11 20 -19 57 -19 82 -1 25 -7 63 -15 85 -8 22
-17 59 -21 83 -4 24 -12 48 -19 55 -6 7 -14 30 -17 52 -3 23 -15 62 -27 87
-11 26 -21 55 -21 65 0 10 -6 27 -14 38 -7 11 -16 37 -20 58 -4 20 -11 37 -16
37 -5 0 -13 12 -16 27 -10 40 -62 150 -74 158 -5 3 -10 15 -10 26 0 10 -9 28
-20 39 -11 11 -20 24 -20 29 0 16 -54 116 -67 124 -7 4 -13 13 -13 20 0 7 -24
47 -53 91 -28 43 -57 86 -62 95 -34 54 -51 77 -62 84 -7 4 -13 13 -13 18 0 6
-28 43 -62 83 -35 40 -83 97 -108 126 -49 58 -233 246 -290 295 -232 200 -427
337 -664 463 -76 41 -329 154 -406 182 -172 62 -185 66 -395 118 -168 42 -270
62 -350 68 -39 3 -110 10 -160 16 -102 12 -437 22 -445 14z m2604 -1132 c10
-25 -1 -29 -14 -5 -6 12 -7 21 -1 21 5 0 12 -7 15 -16z m60 -49 c3 -8 1 -15
-4 -15 -6 0 -10 7 -10 15 0 8 2 15 4 15 2 0 6 -7 10 -15z m273 -377 c-3 -8 -6
-5 -6 6 -1 11 2 17 5 13 3 -3 4 -12 1 -19z m43 -38 c0 -5 -5 -10 -11 -10 -5 0
-7 5 -4 10 3 6 8 10 11 10 2 0 4 -4 4 -10z m-5670 -66 c0 -8 -5 -12 -10 -9 -6
4 -8 11 -5 16 9 14 15 11 15 -7z m5706 -21 c-11 -11 -19 6 -11 24 8 17 8 17
12 0 3 -10 2 -21 -1 -24z m-5760 -40 c-10 -10 -19 5 -10 18 6 11 8 11 12 0 2
-7 1 -15 -2 -18z m5851 -125 c-3 -8 -6 -5 -6 6 -1 11 2 17 5 13 3 -3 4 -12 1
-19z m33 -75 c0 -19 -3 -24 -10 -17 -6 6 -8 18 -4 27 9 24 14 21 14 -10z
m-6110 -298 c0 -8 -4 -15 -10 -15 -5 0 -7 7 -4 15 4 8 8 15 10 15 2 0 4 -7 4
-15z m-39 -158 c-8 -8 -11 0 -10 29 1 39 1 39 11 11 7 -21 7 -32 -1 -40z
m6335 -15 c-12 -11 -18 7 -10 30 l8 23 4 -23 c2 -13 1 -26 -2 -30z m-6375 -69
c-12 -20 -14 -14 -5 12 4 9 9 14 11 11 3 -2 0 -13 -6 -23z m6439 -7 c0 -3 -4
-8 -10 -11 -5 -3 -10 -1 -10 4 0 6 5 11 10 11 6 0 10 -2 10 -4z m-3227 -13
c-24 -2 -62 -2 -85 0 -24 2 -5 4 42 4 47 0 66 -2 43 -4z m3177 -23 c0 -5 -2
-10 -4 -10 -3 0 -8 5 -11 10 -3 6 -1 10 4 10 6 0 11 -4 11 -10z m50 -29 c0
-27 -17 -35 -23 -11 -5 19 0 30 15 30 4 0 8 -9 8 -19z m-6453 -84 c6 2 14 0
17 -6 4 -5 -3 -12 -14 -16 -14 -4 -20 -15 -20 -36 0 -16 -5 -29 -12 -29 -9 0
-14 21 -15 67 -2 67 -2 67 15 42 9 -14 22 -24 29 -22z m1166 36 c-13 -2 -33
-2 -45 0 -13 2 -3 4 22 4 25 0 35 -2 23 -4z m3661 -17 c-1 -9 2 -16 7 -16 5 0
9 -5 9 -11 0 -5 -4 -8 -8 -5 -4 2 -13 1 -20 -3 -9 -5 -6 -17 8 -44 11 -20 17
-38 13 -38 -26 -4 -129 4 -133 11 -3 4 -23 8 -45 8 -29 0 -45 -5 -56 -20 -20
-26 -52 -18 -42 9 4 10 15 24 25 31 10 7 18 20 18 28 0 12 10 15 43 14 73 -3
87 -1 81 13 -6 17 13 34 46 39 40 6 55 2 54 -16z m-467 3 c6 -6 34 -12 62 -13
35 -1 56 -7 68 -20 17 -18 17 -18 -4 -13 -13 3 -23 1 -23 -4 0 -4 -12 -8 -27
-8 -16 1 -55 -3 -88 -9 -40 -6 -64 -6 -72 0 -19 16 -16 25 12 32 14 4 31 15
37 26 15 23 20 24 35 9z m2113 -33 c6 -18 9 -53 8 -77 -2 -28 1 -44 9 -44 21
0 25 -13 29 -96 2 -45 9 -88 15 -95 7 -8 8 -29 4 -53 -4 -27 -2 -43 7 -51 10
-10 12 -41 8 -134 -3 -66 -2 -143 1 -171 4 -27 4 -80 1 -117 -4 -56 -7 -65
-17 -51 -8 10 -30 17 -66 19 -30 2 -90 5 -133 8 -53 3 -93 0 -120 -9 -22 -8
-44 -11 -48 -8 -5 3 -85 6 -177 7 -116 1 -173 5 -183 13 -10 9 -24 10 -45 4
-17 -5 -36 -5 -46 0 -9 6 -26 5 -44 -2 -15 -7 -53 -13 -83 -15 -30 -1 -64 -3
-75 -4 -11 -1 -40 4 -65 10 -25 7 -55 12 -68 13 -22 2 -38 29 -28 46 3 5 -8
14 -24 20 -34 11 -38 28 -12 47 10 8 12 13 5 14 -15 0 -18 20 -3 20 6 0 20 9
32 20 12 11 32 20 45 20 20 0 23 5 23 35 0 38 -1 38 51 26 33 -8 38 -6 50 15
14 26 29 30 47 12 27 -27 -3 -91 -37 -80 -9 3 -5 -11 10 -38 13 -24 31 -45 39
-46 8 -2 32 -7 52 -12 42 -11 48 -8 48 23 0 33 -25 59 -56 60 -15 0 -29 6 -31
13 -3 7 4 12 16 12 11 0 23 5 26 10 3 6 1 10 -6 10 -7 0 -10 3 -7 6 3 3 -5 16
-18 29 -14 14 -24 36 -24 52 1 22 2 25 10 12 5 -9 23 -22 40 -29 24 -10 30
-18 30 -42 0 -26 2 -29 15 -18 11 9 18 10 29 1 22 -18 70 4 63 29 -3 12 0 20
8 20 7 0 18 7 25 15 7 8 16 12 21 9 22 -13 20 28 -2 50 -13 13 -37 37 -53 55
-25 28 -30 30 -40 15 -7 -9 -21 -14 -32 -12 -14 2 -19 12 -20 38 -1 134 -4
152 -18 138 -8 -8 -15 -23 -17 -33 -5 -25 -27 -31 -36 -10 -4 12 1 23 15 34
32 24 14 40 -56 47 -42 5 -62 11 -62 20 0 15 19 16 235 16 139 -1 165 -6 165
-35 0 -11 8 -26 18 -33 16 -13 16 -13 0 -14 -17 0 -24 -29 -19 -82 2 -17 -58
-108 -71 -108 -4 0 -8 -7 -8 -15 0 -10 11 -15 33 -16 17 -1 50 -3 72 -5 125
-11 190 -2 181 23 -5 11 -1 13 17 7 28 -8 27 -7 32 -34 5 -28 13 -36 43 -45
16 -5 22 -2 22 9 0 8 -4 18 -10 21 -16 10 -12 26 6 23 10 -2 19 4 21 12 4 13
3 13 -6 0 -9 -13 -11 -13 -11 2 0 9 -5 18 -12 20 -17 6 -18 36 -2 42 19 7 18
26 -2 26 -9 0 -14 6 -11 13 2 6 9 11 15 10 6 -2 31 1 56 6 60 11 80 -3 78 -53
-1 -21 5 -48 13 -60 14 -21 12 -36 -5 -36 -3 0 -16 9 -29 21 -16 15 -29 19
-49 14 -14 -3 -21 -9 -16 -13 6 -4 13 -17 17 -30 4 -18 -1 -25 -26 -37 l-32
-13 45 -2 c25 -1 49 -2 53 -1 5 1 6 -3 2 -9 -3 -5 -13 -10 -21 -10 -17 0 -19
-39 -1 -44 6 -3 30 -7 52 -10 35 -5 41 -3 42 14 1 12 -3 17 -11 14 -15 -6 -30
22 -20 37 3 5 16 9 30 9 15 0 24 6 24 15 0 25 29 17 36 -10 8 -33 -1 -56 -21
-49 -10 4 -15 0 -15 -15 0 -15 6 -21 21 -21 11 0 18 -4 14 -9 -6 -10 5 -95 11
-88 2 2 9 38 14 81 9 62 8 95 -4 169 -19 105 -19 120 -7 112 5 -3 12 -1 16 5
10 15 -4 50 -20 50 -10 0 -13 8 -10 28 2 15 7 44 10 65 3 20 10 37 16 37 13 0
-1 52 -17 65 -14 10 -14 71 -1 92 4 6 0 18 -8 26 -16 16 -20 39 -9 50 11 11
22 -1 34 -37z m-5994 26 c-8 -13 -176 -15 -176 -3 0 7 33 11 91 11 49 0 88 -4
85 -8z m384 -2 c0 -5 -11 -10 -25 -10 -14 0 -25 5 -25 10 0 6 11 10 25 10 14
0 25 -4 25 -10z m1906 -6 c-3 -8 3 -24 13 -36 21 -22 31 -22 169 -12 47 3 72
1 72 -5 0 -7 -25 -11 -61 -11 -64 0 -99 -12 -99 -34 0 -11 20 -14 88 -14 115
1 170 -10 177 -33 6 -17 7 -17 25 1 16 16 25 17 52 9 18 -5 103 -7 188 -4 192
6 236 1 257 -32 14 -21 14 -26 2 -34 -8 -5 -12 -9 -9 -9 57 -6 132 -5 136 2 3
4 0 8 -5 8 -6 0 -11 5 -11 10 0 6 6 10 14 10 16 0 16 31 1 42 -5 4 6 8 25 8
30 0 36 -4 37 -22 1 -13 7 -24 13 -26 17 -6 11 -22 -7 -22 -16 -1 -16 -2 -2
-13 24 -19 32 -63 13 -81 -8 -9 -12 -21 -9 -27 8 -12 -23 -38 -47 -39 -10 0
-22 -9 -27 -19 -15 -27 -118 -27 -126 0 -8 24 -32 25 -38 2 -2 -10 -2 -7 0 7
12 62 8 103 -9 106 -10 1 -22 -5 -28 -14 -8 -15 -9 -15 -10 2 0 14 -3 17 -11
9 -6 -6 -30 -8 -55 -5 -42 4 -44 3 -44 -22 0 -25 2 -26 60 -26 45 0 62 -4 67
-15 3 -9 2 -19 -2 -23 -4 -4 -10 -1 -12 6 -8 20 -40 14 -46 -10 -8 -27 -1 -38
24 -38 10 0 19 -5 19 -11 0 -5 5 -7 10 -4 6 4 10 -5 10 -19 0 -24 -4 -26 -40
-26 -38 0 -40 -2 -40 -30 0 -23 4 -30 20 -30 24 0 27 -15 4 -24 -27 -10 -34
-7 -34 19 0 15 -5 24 -12 22 -7 -1 -14 10 -16 24 -2 21 2 28 20 32 13 4 32 13
43 21 20 15 20 15 -2 9 -20 -5 -23 -1 -23 23 0 29 -15 63 -23 54 -15 -17 -36
-71 -32 -82 3 -7 -4 -19 -15 -25 -18 -12 -19 -11 -10 11 7 20 5 27 -15 40 -18
12 -25 12 -28 3 -3 -9 -11 -9 -39 1 -19 6 -45 12 -59 13 -23 1 -23 1 6 14 25
11 32 11 46 -1 21 -19 72 -2 63 21 -7 16 -8 17 -44 21 -91 10 -120 22 -120 49
0 6 4 3 10 -5 8 -12 10 -12 16 3 3 9 10 17 16 17 5 0 6 -4 3 -10 -3 -5 6 -12
20 -16 34 -8 76 13 68 34 -5 11 -3 13 8 7 10 -7 10 -3 -2 15 -15 22 -24 25
-82 25 -39 0 -71 5 -78 13 -7 6 -19 12 -27 12 -7 0 -10 5 -7 10 4 6 -3 6 -18
-1 -14 -6 -30 -23 -37 -37 -9 -21 -13 -23 -20 -12 -8 12 -12 12 -22 2 -10 -10
-10 -15 2 -22 19 -11 5 -17 -64 -23 -41 -4 -49 -2 -53 14 -3 10 -9 19 -14 19
-5 0 -9 12 -9 26 0 25 -1 25 -65 21 -82 -5 -86 8 -4 16 33 3 63 8 66 11 14 14
-13 20 -92 20 -73 1 -85 3 -89 19 -4 15 0 18 15 14 23 -6 36 10 20 26 -6 6
-11 7 -11 2 0 -6 -24 -10 -52 -11 -29 -1 -65 -4 -80 -9 -25 -7 -28 -5 -28 17
0 27 -17 53 -40 61 -8 2 8 7 35 11 28 3 66 10 85 15 57 14 73 13 66 -5z m1824
6 c0 -5 -7 -10 -15 -10 -8 0 -15 5 -15 10 0 6 7 10 15 10 8 0 15 -4 15 -10z
m644 -1 c17 -1 2 -6 -33 -11 -66 -9 -78 -7 -66 12 5 7 19 10 37 6 17 -3 45 -7
62 -7z m66 -15 c0 -8 -7 -14 -15 -14 -17 0 -18 2 -9 24 7 18 24 12 24 -10z
m700 20 c0 -10 -28 -34 -39 -34 -18 0 -12 28 7 33 27 7 32 7 32 1z m-3842 -16
c-6 -18 -28 -21 -28 -4 0 9 7 16 16 16 9 0 14 -5 12 -12z m322 3 c0 -6 -4 -13
-10 -16 -5 -3 -10 1 -10 9 0 9 5 16 10 16 6 0 10 -4 10 -9z m2575 -4 c39 -10
51 -18 53 -36 3 -21 1 -22 -79 -19 -55 2 -84 7 -87 16 -3 9 18 12 80 13 l83 1
-85 13 c-47 7 -101 15 -120 18 -19 2 -3 4 35 5 39 1 93 -4 120 -11z m1361 -35
c5 -24 3 -32 -7 -32 -10 -1 -10 -3 2 -10 13 -8 15 -18 9 -52 -5 -24 -10 -63
-11 -88 -2 -26 -10 -50 -19 -57 -12 -9 -13 -16 -4 -30 6 -10 15 -16 19 -15 13
6 25 -22 14 -34 -5 -6 -6 -19 -3 -29 5 -13 3 -16 -7 -13 -8 3 -13 12 -11 21 1
8 -2 18 -8 22 -5 3 -10 13 -10 21 0 20 -24 44 -43 44 -8 0 -17 10 -21 23 -13
49 -3 142 15 131 5 -3 9 1 9 10 0 8 3 21 6 30 4 10 -1 19 -15 24 -21 8 -21 8
6 38 48 53 68 52 79 -4z m-4556 28 c0 -5 -9 -10 -21 -10 -11 0 -17 5 -14 10 3
6 13 10 21 10 8 0 14 -4 14 -10z m1285 0 c4 -6 -5 -10 -20 -10 -15 0 -24 4
-20 10 3 6 12 10 20 10 8 0 17 -4 20 -10z m1078 -18 c-3 -13 -13 -22 -24 -22
-12 0 -23 -10 -29 -25 -14 -38 -30 -30 -30 15 0 39 1 40 34 40 19 0 38 5 41
11 10 16 15 6 8 -19z m-567 -3 c5 -4 20 -6 31 -3 15 4 25 0 32 -14 10 -18 7
-20 -27 -21 -108 -5 -231 -3 -263 4 -23 4 -39 3 -43 -4 -8 -12 -46 -15 -46 -3
0 9 49 32 69 32 9 1 27 7 41 15 18 10 47 12 110 8 47 -3 90 -9 96 -14z m294
-9 c0 -11 -4 -20 -10 -20 -5 0 -10 9 -10 20 0 11 5 20 10 20 6 0 10 -9 10 -20z
m-2861 -6 c5 3 11 2 13 -4 2 -6 19 -4 43 4 39 14 55 13 55 -3 0 -20 -138 -35
-152 -17 -3 5 -4 15 -1 23 4 10 9 11 19 2 7 -6 17 -8 23 -5z m1961 -10 c0 -8
-5 -12 -10 -9 -6 4 -8 11 -5 16 9 14 15 11 15 -7z m2973 3 c3 -8 -1 -14 -9
-14 -8 0 -14 6 -14 14 0 7 4 13 9 13 5 0 11 -6 14 -13z m-4605 -9 c34 -2 62
-5 62 -9 0 -3 -27 -9 -61 -13 -33 -3 -65 -8 -70 -12 -15 -9 -10 -41 7 -48 23
-9 46 -7 40 3 -5 8 54 23 63 15 8 -7 -29 -34 -48 -34 -12 0 -21 -8 -23 -22 -4
-25 -28 -37 -28 -14 0 9 -4 16 -10 16 -5 0 -10 -7 -10 -15 0 -11 -11 -15 -40
-15 -39 0 -40 1 -40 35 0 27 -7 42 -27 60 l-28 24 28 1 c21 0 27 5 27 21 0 19
4 21 48 15 26 -3 75 -7 110 -8z m1902 -8 c0 -5 -9 -10 -20 -10 -11 0 -20 5
-20 10 0 6 9 10 20 10 11 0 20 -4 20 -10z m460 4 c0 -8 -19 -13 -24 -6 -3 5 1
9 9 9 8 0 15 -2 15 -3z m60 -6 c0 -4 -7 -8 -15 -8 -8 0 -15 4 -15 8 0 5 7 9
15 9 8 0 15 -4 15 -9z m1580 -4 c0 -17 -22 -14 -28 4 -2 7 3 12 12 12 9 0 16
-7 16 -16z m746 4 c17 -27 14 -106 -4 -124 -12 -13 -13 -19 -4 -22 14 -4 16
-39 3 -44 -6 -2 -6 -18 -2 -38 9 -42 -13 -97 -41 -106 -11 -3 -23 -17 -28 -30
-11 -29 -30 -32 -30 -4 0 11 4 20 9 20 17 0 19 50 2 60 -13 8 -14 11 -2 19 10
7 11 13 1 30 -16 31 4 54 42 49 35 -6 37 9 3 18 -28 7 -45 48 -27 66 6 6 8 17
5 26 -5 11 -1 14 14 10 18 -5 22 0 28 38 6 44 17 55 31 32z m-5560 -9 c5 -8 9
-8 14 1 10 16 30 4 30 -19 0 -9 -7 -26 -15 -37 -14 -18 -14 -18 -15 5 0 19 -3
21 -15 11 -19 -16 -35 -4 -35 26 0 25 23 33 36 13z m389 -30 c-7 -19 -295 -21
-295 -1 0 9 31 12 124 12 99 0 126 3 136 16 11 13 15 13 27 1 8 -7 11 -20 8
-28z m4605 31 c0 -5 -4 -10 -10 -10 -5 0 -10 5 -10 10 0 6 5 10 10 10 6 0 10
-4 10 -10z m250 -12 c0 -5 -25 -8 -55 -8 -30 0 -55 3 -55 8 0 4 25 7 55 7 30
0 55 -3 55 -7z m-1953 -4 c-3 -3 -12 -4 -19 -1 -8 3 -5 6 6 6 11 1 17 -2 13
-5z m-3539 -16 c-6 -16 -156 -14 -171 1 -8 8 17 11 82 11 70 0 92 -3 89 -12z
m4024 -6 c3 -10 -2 -28 -12 -39 -13 -16 -26 -20 -63 -19 -52 3 -73 16 -63 41
4 12 18 15 58 14 33 -2 53 2 56 9 6 18 19 14 24 -6z m292 10 c8 -13 -11 -35
-23 -28 -16 10 -14 36 3 36 8 0 17 -4 20 -8z m-490 -18 c3 -9 6 -25 6 -37 0
-16 -3 -18 -9 -8 -5 8 -11 9 -15 3 -9 -16 -41 -7 -44 12 -8 37 49 64 62 30z
m-4254 -21 c0 -20 -3 -24 -11 -16 -7 7 -9 19 -6 27 10 24 17 19 17 -11z m1680
1 c0 -8 -7 -14 -15 -14 -8 0 -15 9 -15 20 0 13 5 18 15 14 8 -4 15 -12 15 -20z
m405 8 c63 2 85 0 85 -9 0 -7 6 -13 13 -13 6 0 51 -3 100 -5 82 -5 87 -4 87
15 0 28 43 27 62 -2 14 -21 15 -21 63 -5 43 15 50 15 65 2 21 -19 44 -19 60 0
16 19 44 19 60 0 7 -9 12 -39 11 -70 l-1 -55 43 -1 c58 -2 81 1 85 11 2 5 10
6 18 3 8 -3 14 0 14 6 0 6 6 11 14 11 16 0 30 -43 16 -48 -6 -2 -10 -12 -10
-23 0 -11 -7 -19 -17 -19 -23 0 -45 -44 -30 -59 15 -15 21 -14 43 7 11 9 18
25 16 35 -3 14 1 18 20 15 18 -2 24 2 26 20 2 12 7 20 12 17 5 -3 11 4 15 15
8 24 21 26 29 4 5 -13 15 -15 44 -11 21 4 31 3 24 -2 -18 -11 32 -24 59 -16
24 8 50 -11 43 -30 -5 -11 -57 -32 -60 -23 0 2 -8 -3 -17 -10 -14 -12 -19 -12
-32 2 -9 9 -13 20 -10 26 3 5 -1 10 -10 10 -12 0 -14 -4 -5 -19 7 -13 7 -22 0
-26 -13 -8 -13 -55 -1 -55 6 0 13 5 16 11 5 6 12 4 21 -8 13 -17 15 -17 28 0
21 27 43 21 42 -10 -1 -23 -7 -29 -30 -33 l-29 -5 1 -83 1 -84 -27 7 c-36 9
-37 10 -37 53 0 23 9 50 23 69 24 33 22 91 -2 76 -11 -7 -16 -9 -35 -12 -5 0
-12 -9 -16 -20 -3 -10 -23 -26 -45 -36 -35 -16 -40 -22 -40 -52 0 -42 15 -43
24 0 6 28 8 30 17 14 6 -10 7 -31 4 -47 -7 -31 -19 -38 -30 -20 -5 8 -11 7
-20 0 -17 -14 -31 -7 -38 20 -3 13 -1 18 5 13 8 -4 9 5 4 27 -8 40 -3 36 -48
43 -29 4 -38 2 -38 -9 0 -8 -6 -14 -12 -14 -9 0 -10 -2 -2 -8 18 -11 36 -84
24 -96 -7 -7 -10 -5 -10 3 0 8 -7 11 -20 8 -25 -7 -28 -1 -31 56 -2 25 -6 44
-11 41 -4 -3 -8 -1 -8 4 0 6 -63 11 -157 11 -86 1 -160 4 -164 7 -12 7 -27
-26 -22 -47 6 -22 34 -25 63 -7 15 10 26 10 53 0 18 -7 72 -12 120 -12 77 0
86 -2 92 -20 3 -11 4 -29 0 -39 -3 -12 -1 -19 7 -18 46 1 57 -4 60 -30 3 -26
5 -27 56 -24 54 3 56 1 52 -47 -1 -14 5 -24 17 -28 34 -11 62 -27 59 -33 -2
-3 6 -6 19 -6 13 0 21 3 18 8 -8 13 10 7 29 -10 23 -21 25 -65 2 -56 -9 3 -20
0 -26 -8 -7 -11 -11 -11 -15 -1 -3 7 -25 12 -59 12 -61 0 -71 10 -55 53 9 23
7 31 -10 48 -11 11 -27 18 -34 15 -7 -2 -16 2 -19 10 -8 21 -36 17 -36 -6 0
-16 -7 -20 -30 -20 -23 0 -30 4 -30 20 0 15 -7 20 -24 20 -14 0 -28 -4 -31
-10 -3 -5 -18 -10 -33 -10 l-27 0 30 -20 c17 -11 42 -20 58 -20 15 0 27 -3 27
-8 0 -4 19 -13 42 -20 33 -11 43 -11 49 0 13 21 22 1 15 -35 -3 -18 -12 -34
-19 -34 -6 0 -16 -2 -22 -3 -5 -1 -23 -2 -40 -1 -29 2 -29 2 -11 16 13 10 15
15 6 15 -7 0 -21 7 -31 16 -14 12 -22 13 -39 4 -11 -6 -35 -10 -53 -8 -24 2
-33 8 -35 25 -2 15 -12 25 -28 28 -13 3 -35 7 -49 10 -27 6 -30 -1 -15 -40 9
-23 7 -27 -18 -36 -23 -9 -183 -14 -274 -10 -32 2 -44 17 -28 36 7 9 8 15 0
20 -5 3 -10 -1 -10 -9 0 -9 -4 -16 -10 -16 -5 0 -10 4 -10 8 0 4 -18 8 -39 7
-21 0 -37 -3 -35 -7 13 -20 -72 -49 -90 -31 -4 4 -37 8 -74 9 -37 0 -71 2 -77
4 -16 5 -65 -11 -65 -22 0 -6 -6 -5 -15 2 -12 10 -16 9 -21 -4 -7 -18 -34 -22
-34 -5 0 5 -4 8 -9 4 -5 -3 -38 -8 -73 -11 -100 -8 -108 -10 -122 -29 -12 -17
-13 -16 -19 14 -7 32 -37 45 -37 16 0 -24 -28 -30 -49 -11 -22 20 -108 19
-116 -1 -5 -14 -35 -18 -35 -5 0 5 9 17 20 27 20 18 28 65 11 65 -5 0 -14 13
-21 30 -7 16 -21 39 -31 51 l-19 22 -10 -27 c-5 -14 -13 -26 -18 -26 -14 0
-37 35 -34 51 2 14 -4 16 -40 12 -24 -3 -44 -6 -44 -7 -1 0 -5 -12 -9 -26 -7
-23 -7 -23 9 -7 37 37 63 15 46 -38 -9 -29 -16 -35 -39 -35 -24 0 -30 6 -40
40 -11 38 -35 53 -43 28 -6 -17 -88 -17 -88 0 0 6 -5 12 -11 12 -5 0 -7 4 -4
10 3 5 25 7 50 3 43 -5 45 -5 45 19 0 29 -35 45 -57 27 -6 -6 -17 -8 -23 -4
-6 4 -18 -1 -25 -11 -14 -18 -15 -18 -38 8 l-24 27 -21 -22 c-30 -29 -47 -12
-34 34 8 25 10 28 11 12 1 -31 27 -29 33 2 8 42 -13 91 -45 103 -26 10 -30 8
-49 -21 -11 -18 -17 -24 -14 -14 3 10 6 32 6 49 0 25 3 29 20 25 17 -4 20 0
20 34 0 37 -2 39 -31 39 -39 0 -109 20 -109 32 0 4 5 8 11 8 6 0 9 9 6 19 -7
29 25 36 143 33 l105 -3 -3 -44 c-3 -36 -1 -45 12 -45 11 0 16 9 17 28 1 15 2
34 3 42 1 10 16 17 50 21 52 6 60 -1 54 -43 -3 -20 -9 -23 -50 -26 -64 -4 -61
-22 3 -22 45 0 50 -2 44 -17 -16 -40 -17 -55 -4 -64 10 -6 11 -11 3 -19 -9 -9
-6 -18 11 -36 30 -32 55 -32 55 1 0 15 6 25 14 25 29 0 66 -20 66 -35 0 -18
40 -21 57 -4 6 6 27 11 47 11 33 0 36 3 38 29 0 16 1 35 2 42 1 6 -6 12 -14
12 -9 0 -14 -8 -13 -22 3 -23 -20 -37 -48 -28 -15 5 -17 13 -12 38 7 36 23 55
39 50 14 -5 25 22 18 42 -4 10 -10 12 -18 6 -17 -14 -56 6 -56 29 0 17 6 20
40 20 33 0 41 4 46 24 5 20 22 33 69 54 6 3 4 -1 -2 -9 -36 -38 15 -68 97 -57
30 4 65 4 77 1 13 -3 29 1 38 11 13 12 37 16 104 16 78 0 90 2 108 23 13 15
19 34 17 60 -2 33 0 37 23 37 20 0 24 -4 18 -17 -4 -10 -10 -27 -13 -38 -3
-11 -10 -23 -16 -28 -7 -4 -2 -14 14 -27 24 -20 25 -21 6 -35 -19 -15 -19 -15
2 -15 15 0 22 -6 22 -19 0 -24 26 -31 115 -31 48 0 78 5 93 16 25 17 29 34 8
34 -8 0 -18 9 -21 20 -5 16 -15 20 -46 20 -28 0 -39 4 -39 15 0 10 10 15 34
15 70 0 86 26 40 62 -23 19 -24 22 -10 37 9 10 16 26 16 36 0 14 3 15 15 5 10
-8 43 -11 100 -8z m525 8 c0 -5 -2 -10 -4 -10 -3 0 -8 5 -11 10 -3 6 -1 10 4
10 6 0 11 -4 11 -10z m3488 0 c17 0 32 -5 32 -10 0 -6 -3 -11 -7 -11 -44 -8
-64 -9 -103 -9 -48 1 -67 11 -55 30 5 8 23 10 54 6 25 -4 61 -6 79 -6z m262 0
c-19 -13 -30 -13 -30 0 0 6 10 10 23 10 18 0 19 -2 7 -10z m-1349 -24 c-19
-23 3 -56 37 -56 19 0 23 3 13 9 -11 7 -10 13 5 36 10 15 20 23 22 16 2 -7 53
-11 163 -11 130 0 159 3 159 14 0 9 7 12 20 9 11 -3 20 -10 20 -15 0 -5 -5 -6
-10 -3 -13 8 -2 -44 13 -62 11 -15 37 -17 37 -4 0 10 30 24 37 18 2 -3 -1 -16
-8 -30 -7 -17 -22 -27 -43 -30 -17 -3 -43 -9 -58 -12 -25 -7 -27 -4 -33 29 -5
26 -12 36 -26 36 -11 0 -22 7 -25 15 -5 11 -10 12 -25 2 -15 -9 -23 -9 -39 1
-17 10 -20 10 -20 -6 0 -15 -7 -17 -42 -14 -24 2 -48 11 -55 19 -10 13 -13 12
-22 -5 -6 -11 -8 -22 -4 -26 7 -6 -46 -86 -57 -86 -4 0 -12 11 -18 25 -19 42
-42 25 -42 -30 0 -13 -6 -25 -12 -28 -19 -6 9 -37 33 -37 11 0 19 -4 19 -10 0
-13 37 -13 45 0 3 5 12 7 20 4 9 -4 16 3 21 20 3 14 12 26 20 26 9 0 14 12 14
36 0 30 2 34 14 25 9 -7 13 -23 10 -38 -4 -23 -2 -25 25 -21 16 2 28 1 25 -4
-3 -4 6 -4 19 1 29 11 67 4 67 -13 0 -6 9 0 20 14 22 28 25 27 33 -17 6 -29 4
-32 -21 -35 -15 -2 -44 0 -65 3 -20 4 -40 2 -43 -2 -3 -5 -14 -9 -24 -9 -25 0
-33 -16 -32 -62 1 -28 -2 -38 -13 -38 -8 0 -15 8 -15 19 0 11 -12 23 -29 31
-39 16 -86 -5 -85 -38 1 -20 -4 -22 -46 -22 -30 0 -52 6 -60 15 -7 8 -19 15
-26 15 -16 0 -19 -36 -4 -45 6 -3 10 -17 10 -31 0 -20 5 -24 30 -24 16 0 35 6
42 14 11 12 15 12 30 -1 14 -12 21 -13 32 -4 11 9 25 9 63 -3 26 -8 70 -17 96
-19 47 -5 49 -4 44 19 -2 14 2 25 11 29 26 10 50 -4 50 -30 0 -21 -5 -25 -29
-25 -24 0 -31 -5 -35 -27 -5 -27 -7 -28 -60 -25 -44 3 -54 1 -54 -12 0 -17
-16 -22 -22 -6 -2 6 -16 6 -40 -2 -34 -10 -39 -9 -57 13 -11 13 -20 18 -21 12
0 -8 -13 -13 -29 -13 -22 0 -31 -6 -36 -22 -4 -13 -16 -30 -26 -38 -10 -8 -22
-30 -25 -47 -6 -29 -4 -33 15 -33 11 0 21 -6 21 -12 0 -9 3 -8 10 2 8 13 11
12 23 -4 9 -12 20 -17 31 -13 9 4 16 3 16 -1 0 -12 49 -13 70 -2 13 7 20 6 23
-3 2 -6 8 -8 13 -4 9 9 -15 29 -27 22 -7 -5 -29 39 -29 59 0 16 24 28 43 20 7
-2 19 7 27 21 19 35 37 31 31 -7 0 -4 8 -10 19 -13 11 -4 20 -11 20 -16 0 -5
12 -9 26 -9 21 0 25 -4 21 -20 -4 -14 0 -20 11 -20 10 0 23 -4 31 -9 11 -7 9
-13 -8 -30 -23 -23 -79 -29 -99 -9 -8 8 -15 8 -26 -1 -9 -7 -24 -10 -37 -6
-14 5 -19 4 -15 -4 4 -6 4 -11 -1 -11 -4 0 -37 -5 -73 -11 -90 -16 -170 -13
-189 6 -10 10 -11 15 -3 15 7 0 12 7 12 15 0 8 6 15 13 16 10 0 10 2 0 6 -16
6 -17 53 -2 53 5 0 7 5 4 10 -3 6 -1 10 6 10 7 0 5 6 -6 14 -18 13 -55 11 -55
-4 0 -5 -8 -7 -17 -5 -10 2 -23 4 -30 4 -18 1 -5 28 16 34 10 2 20 14 24 26 4
17 1 21 -20 21 -13 0 -31 -7 -39 -15 -11 -10 -21 -12 -32 -6 -17 9 -24 11 -42
11 -5 0 -7 6 -4 14 9 24 -17 29 -37 7 -24 -25 -24 -27 2 -34 18 -5 19 -8 8
-20 -9 -10 -18 -12 -23 -6 -6 5 -19 9 -30 9 -16 0 -17 3 -8 12 19 19 14 28
-17 28 -23 0 -34 8 -50 35 -21 36 -35 43 -46 25 -5 -8 -11 -7 -21 1 -11 9 -14
7 -14 -15 0 -15 4 -25 9 -21 12 7 31 -26 31 -54 0 -20 9 -25 38 -22 7 1 15 -5
18 -14 3 -8 15 -15 26 -15 10 0 17 -4 13 -9 -13 -23 61 -31 133 -16 21 5 32 4
32 -4 0 -6 -9 -11 -20 -11 -11 0 -20 -4 -20 -9 0 -5 9 -13 20 -16 11 -3 20
-13 20 -22 0 -12 7 -14 31 -9 18 3 38 1 45 -5 31 -26 13 -31 -73 -24 -95 8
-93 8 -140 -1 -24 -5 -36 -1 -53 16 -21 21 -21 23 -4 41 9 10 14 22 10 26 -4
4 -10 2 -14 -4 -4 -6 -24 -14 -45 -18 -21 -4 -37 -13 -37 -21 0 -17 -5 -17
-31 -3 -11 5 -61 12 -112 14 -51 2 -96 4 -102 4 -5 1 -27 -2 -48 -5 -31 -5
-41 -2 -60 18 -21 23 -25 58 -6 58 14 0 11 30 -5 36 -17 6 -18 84 -1 84 6 0
15 -3 19 -7 3 -4 14 -8 23 -9 10 -2 27 -8 40 -15 17 -9 20 -16 13 -29 -8 -14
-5 -16 15 -12 30 5 42 32 15 32 -11 0 -25 9 -32 21 -7 11 -30 29 -50 40 -42
21 -47 40 -20 72 14 19 27 22 78 21 71 -2 84 -7 84 -35 0 -16 7 -19 50 -19 42
0 50 3 50 18 0 15 -6 18 -31 14 -22 -3 -36 1 -50 17 -11 11 -15 21 -10 21 6 0
10 15 9 33 -1 18 6 45 16 59 9 14 14 33 10 42 -4 12 0 16 16 16 16 0 20 -4 16
-18 -4 -10 1 -27 9 -38 13 -17 14 -12 15 59 0 75 1 77 24 77 19 0 25 -6 28
-27 2 -22 7 -27 23 -24 11 2 53 6 93 8 52 3 72 8 72 18 0 9 -15 15 -42 18 -24
2 -5 4 43 5 86 2 139 -11 139 -35 0 -16 37 -36 50 -28 13 8 9 64 -5 62 -5 -1
-13 -6 -16 -11 -4 -5 -12 2 -19 15 -7 13 -21 31 -32 40 -19 15 -19 17 -3 32 9
9 14 21 11 25 -3 5 12 8 32 7 32 -1 37 -4 35 -23 -3 -21 1 -22 77 -22 l81 0 6
31 c4 24 10 29 24 26 11 -3 19 0 19 6 0 6 3 7 6 4 4 -4 1 -13 -5 -21z m-3421
-6 c0 -11 5 -20 12 -20 8 0 7 -6 -4 -16 -12 -13 -20 -14 -37 -5 -23 13 -28 46
-8 54 25 11 37 6 37 -13z m2419 -19 c-15 -5 -22 6 -14 19 6 9 10 9 16 -1 5 -8
4 -15 -2 -18z m661 14 c0 -8 -4 -15 -10 -15 -5 0 -7 7 -4 15 4 8 8 15 10 15 2
0 4 -7 4 -15z m-3460 -10 c0 -16 -27 -32 -36 -22 -7 6 17 36 29 37 4 0 7 -7 7
-15z m5150 5 c11 -7 7 -10 -18 -10 -20 0 -31 4 -27 10 8 13 26 13 45 0z
m-5776 -6 c26 -10 18 -24 -14 -24 -17 0 -30 5 -31 13 0 10 -2 10 -6 0 -7 -18
-30 -16 -37 2 -4 12 3 15 33 15 22 0 46 -3 55 -6z m401 -22 c-3 -3 -11 0 -18
7 -9 10 -8 11 6 5 10 -3 15 -9 12 -12z m692 -29 c-3 -10 -5 -2 -5 17 0 19 2
27 5 18 2 -10 2 -26 0 -35z m230 27 c1 -11 -3 -20 -8 -20 -6 0 -7 5 -4 10 4 6
-7 10 -24 10 -17 0 -31 5 -31 10 0 6 15 10 33 10 26 0 33 -4 34 -20z m2253
-26 c0 -17 -32 -23 -81 -14 -23 4 -48 6 -55 3 -23 -8 -25 16 -2 28 16 9 23 9
26 0 5 -14 42 -15 42 -1 0 6 9 10 20 10 11 0 20 6 20 13 1 15 30 -22 30 -39z
m-3072 26 c12 0 22 -4 22 -10 0 -18 -77 -12 -84 6 -5 13 -2 15 16 10 13 -3 33
-6 46 -6z m-1048 -24 c-5 -13 -6 -27 -3 -30 4 -3 2 -6 -4 -6 -12 0 -22 29 -16
48 3 6 11 12 19 12 10 0 11 -6 4 -24z m60 -6 c0 -16 -2 -30 -5 -30 -9 0 -26
41 -20 50 12 20 25 9 25 -20z m2640 6 c0 -14 -4 -28 -10 -31 -6 -4 -10 7 -10
24 0 17 5 31 10 31 6 0 10 -11 10 -24z m-1478 -8 c-6 -6 -16 -7 -22 -3 -9 6
-9 9 1 16 17 10 34 0 21 -13z m1558 0 c0 -7 -5 -20 -10 -28 -8 -12 -10 -9 -10
13 0 15 5 27 10 27 6 0 10 -6 10 -12z m-2578 -38 c16 -29 16 -32 -3 -65 -23
-39 -31 -42 -49 -20 -7 8 -29 15 -50 15 -34 0 -38 3 -44 32 -7 34 0 50 13 29
7 -10 21 -12 55 -7 36 6 46 11 46 27 0 28 12 23 32 -11z m896 12 c4 -12 -36
-32 -63 -32 -7 0 -21 7 -30 16 -13 14 -14 18 -3 25 19 12 91 5 96 -9z m3072 8
c0 -5 -2 -10 -4 -10 -3 0 -8 5 -11 10 -3 6 -1 10 4 10 6 0 11 -4 11 -10z
m-2555 -20 c-3 -5 -24 -10 -46 -10 -21 0 -39 5 -39 10 0 6 21 10 46 10 27 0
43 -4 39 -10z m1606 -7 c11 -13 0 -43 -17 -46 -5 -1 -8 -5 -6 -9 1 -5 -4 -8
-12 -8 -8 0 -17 -6 -19 -12 -4 -10 -8 -10 -16 1 -7 10 -5 25 4 47 7 18 11 35
7 38 -3 3 7 5 22 4 15 -1 32 -8 37 -15z m3089 -13 c0 -16 -4 -30 -10 -30 -5 0
-10 6 -10 14 0 8 -3 21 -6 30 -4 11 -1 16 10 16 11 0 16 -9 16 -30z m-6340
-22 c0 -28 -3 -39 -10 -32 -9 9 -3 74 6 74 2 0 4 -19 4 -42z m4275 12 c0 -16
-6 -26 -18 -28 -19 -4 -32 20 -23 44 9 25 41 13 41 -16z m-4228 -12 c-3 -8 -6
-5 -6 6 -1 11 2 17 5 13 3 -3 4 -12 1 -19z m233 12 c0 -5 -4 -10 -10 -10 -5 0
-10 5 -10 10 0 6 5 10 10 10 6 0 10 -4 10 -10z m3750 -19 c0 -10 -9 -21 -19
-24 -13 -3 -18 0 -15 9 2 8 6 21 9 30 6 20 25 8 25 -15z m-3950 -41 c0 -11 -7
-20 -15 -20 -8 0 -15 9 -15 20 0 11 7 20 15 20 8 0 15 -9 15 -20z m278 -5 c4
-22 69 -58 78 -44 3 5 10 7 15 4 5 -4 9 1 9 9 0 10 9 16 26 16 18 0 23 -4 17
-12 -10 -17 -14 -236 -4 -242 8 -5 89 -7 141 -4 31 3 35 0 38 -24 3 -27 1 -28
-37 -28 -24 0 -41 5 -41 11 0 8 -17 10 -50 7 -27 -3 -53 -1 -59 5 -5 5 -32 9
-60 9 l-50 -2 19 33 c13 20 20 50 20 80 0 46 -1 47 -30 47 -16 0 -30 -4 -30
-10 0 -5 -18 -10 -40 -10 -22 0 -40 5 -40 10 0 6 9 10 21 10 29 0 50 25 45 54
-2 14 1 27 7 29 22 8 -3 21 -37 20 -30 -1 -35 3 -38 27 -4 26 -2 27 36 26 33
-1 42 -5 44 -21z m3861 -10 c0 -16 -3 -25 -5 -18 -7 15 -34 5 -34 -13 0 -9
-13 -12 -41 -11 -23 1 -36 3 -30 5 22 7 11 32 -14 32 -34 0 -32 28 3 33 15 2
48 4 75 3 46 0 47 -1 46 -31z m61 26 c0 -6 -4 -13 -10 -16 -5 -3 -10 1 -10 9
0 9 5 16 10 16 6 0 10 -4 10 -9z m1418 -18 c-4 -39 -28 -42 -28 -4 0 21 5 31
16 31 11 0 14 -8 12 -27z m382 -2 c0 -33 -15 -49 -23 -27 -7 18 3 56 14 56 5
0 9 -13 9 -29z m-2827 -35 c10 -8 26 -12 37 -9 10 3 33 -2 51 -11 18 -9 40
-16 49 -16 10 0 20 -7 24 -15 3 -8 11 -12 18 -10 12 5 30 -18 66 -82 25 -45
27 -125 3 -178 -11 -26 -21 -52 -21 -58 0 -5 -15 -30 -33 -56 -18 -25 -36 -54
-40 -63 -3 -10 -13 -18 -21 -18 -17 0 -27 49 -15 72 12 22 5 23 -15 2 -9 -8
-16 -32 -16 -53 0 -45 -7 -54 -31 -40 -24 12 -26 93 -5 144 8 18 13 35 11 37
-2 2 -6 28 -8 58 -3 36 -10 58 -22 66 -15 11 -17 22 -12 65 4 29 12 56 18 60
16 9 -8 72 -25 66 -6 -2 -16 3 -23 12 -8 11 -12 12 -13 4 0 -7 -9 -13 -21 -13
-15 0 -19 4 -15 16 3 9 6 20 6 25 0 13 32 10 53 -5z m2195 -12 c6 -7 12 -20
12 -30 0 -10 -3 -14 -6 -11 -4 3 -16 2 -26 -4 -14 -7 -23 -8 -30 -1 -6 6 -16
8 -23 5 -10 -3 -12 2 -8 16 3 12 9 21 14 21 5 0 9 6 9 14 0 16 38 10 58 -10z
m-1441 -2 c20 -13 26 -59 9 -65 -18 -7 -23 -82 -6 -92 8 -5 8 -11 1 -19 -8
-10 -5 -18 9 -31 11 -10 20 -31 20 -47 0 -25 -2 -27 -19 -18 -11 6 -45 7 -80
4 -55 -6 -61 -9 -61 -30 0 -25 26 -44 59 -44 14 0 21 -6 21 -20 0 -11 -3 -19
-7 -18 -13 4 -53 -26 -53 -38 0 -13 -83 -14 -96 -1 -4 4 -20 7 -35 7 -15 0
-35 7 -43 16 -25 24 -86 1 -86 -32 0 -27 -7 -29 -32 -10 -18 13 -24 68 -12
100 7 18 39 22 49 6 3 -5 14 -14 24 -20 17 -8 19 -5 19 30 1 31 -6 47 -26 68
-15 14 -31 25 -36 24 -5 -2 -13 2 -17 9 -8 14 10 61 22 54 4 -3 11 4 14 16 6
16 1 27 -15 39 -23 17 -20 45 3 37 7 -2 22 7 35 21 27 29 85 44 118 32 13 -5
30 -7 37 -4 14 5 87 -32 87 -44 -1 -18 -29 -42 -43 -36 -23 8 -30 -13 -13 -43
8 -16 20 -43 26 -60 16 -41 26 -42 35 -2 5 20 10 27 15 19 5 -8 9 -7 14 5 3 9
3 22 -1 27 -3 7 -1 8 5 4 8 -5 12 0 12 13 0 12 -4 21 -10 21 -18 0 -11 35 10
48 22 13 27 47 9 58 -8 4 -7 9 2 15 17 11 21 11 36 1z m-4028 -87 c0 -33 -4
-82 -9 -110 -6 -40 -8 -24 -9 75 0 84 2 120 9 110 5 -8 9 -42 9 -75z m321 75
c0 -5 -4 -10 -10 -10 -5 0 -10 5 -10 10 0 6 5 10 10 10 6 0 10 -4 10 -10z
m5400 -15 c0 -8 -6 -15 -14 -15 -17 0 -28 14 -19 24 12 12 33 6 33 -9z m336 4
c11 -18 -13 -32 -41 -25 -22 6 -25 9 -15 21 15 18 46 20 56 4z m448 -15 c10
-37 -3 -74 -25 -74 -13 0 -19 7 -19 24 0 13 -4 26 -10 28 -19 6 1 43 25 44 17
1 25 -5 29 -22z m-846 -7 c2 -10 -3 -17 -12 -17 -10 0 -16 9 -16 21 0 24 23
21 28 -4z m-393 -3 c-9 -9 -19 -13 -23 -10 -3 4 0 11 8 16 24 15 33 11 15 -6z
m-5190 -91 c4 -13 11 -23 16 -23 5 0 9 -8 10 -17 0 -15 2 -15 9 2 7 17 9 17 9
3 1 -22 21 -24 21 -3 0 9 6 15 13 14 30 -4 47 2 47 16 0 8 5 15 10 15 11 0 14
-18 11 -60 0 -14 3 -32 9 -40 9 -13 11 -13 20 0 5 8 17 15 27 15 15 0 18 7 15
44 l-3 45 21 -24 c11 -12 20 -34 20 -47 0 -18 5 -23 25 -23 14 0 25 -4 25 -9
0 -18 -161 -29 -236 -16 -28 5 -33 2 -44 -25 -7 -16 -19 -30 -26 -30 -17 0
-19 -17 -2 -22 6 -2 8 -10 4 -17 -5 -8 -14 0 -29 26 -30 56 -37 109 -21 156 8
22 14 54 14 72 0 47 14 53 21 8 3 -21 9 -48 14 -60z m495 52 c0 -14 -4 -25
-10 -25 -5 0 -10 4 -10 9 0 5 -3 16 -6 25 -4 11 -1 16 10 16 10 0 16 -9 16
-25z m47 -12 c-3 -10 -5 -4 -5 12 0 17 2 24 5 18 2 -7 2 -21 0 -30z m4903 17
c0 -11 -4 -20 -10 -20 -5 0 -10 9 -10 20 0 11 5 20 10 20 6 0 10 -9 10 -20z
m-59 -40 l44 -20 -42 0 c-32 0 -43 4 -43 16 0 8 -4 12 -10 9 -5 -3 -10 -1 -10
4 0 15 12 14 61 -9z m-5491 -16 c0 -8 -4 -12 -10 -9 -5 3 -10 10 -10 16 0 5 5
9 10 9 6 0 10 -7 10 -16z m-1 -109 c10 -14 6 -184 -5 -195 -5 -5 -9 49 -9 138
0 81 1 129 3 107 2 -22 7 -44 11 -50z m2897 31 c15 -8 31 -13 36 -10 18 11 43
-30 42 -69 -2 -44 -27 -71 -32 -34 -2 12 -8 26 -13 32 -5 5 -9 17 -9 26 0 20
-31 30 -55 17 -11 -7 -21 -6 -28 1 -8 8 -8 11 0 11 6 0 13 9 16 20 6 24 7 24
43 6z m-2075 -92 c4 -2 10 -28 13 -58 4 -30 13 -56 19 -59 7 -2 35 -1 62 4 28
4 69 8 93 8 37 1 42 -2 42 -22 0 -15 -11 -28 -34 -41 -28 -15 -39 -16 -76 -6
-24 7 -63 9 -87 5 -26 -4 -43 -2 -43 4 0 5 -6 11 -12 14 -7 2 -5 3 4 2 22 -4
35 34 17 46 -7 4 -20 4 -29 -1 -35 -19 -54 34 -24 65 13 12 14 19 5 28 -19 19
-12 28 17 21 15 -4 30 -8 33 -10z m4549 -4 c0 -5 -10 -10 -22 -10 -19 0 -20 2
-8 10 19 13 30 13 30 0z m-330 -31 c0 -5 -4 -9 -10 -9 -5 0 -10 7 -10 16 0 8
5 12 10 9 6 -3 10 -10 10 -16z m40 12 c0 -6 -4 -13 -10 -16 -5 -3 -10 1 -10 9
0 9 5 16 10 16 6 0 10 -4 10 -9z m-80 -21 c0 -5 -4 -10 -10 -10 -5 0 -10 5
-10 10 0 6 5 10 10 10 6 0 10 -4 10 -10z m-4504 -46 c11 -39 11 -42 -11 -54
-13 -7 -31 -10 -39 -7 -8 3 -22 0 -30 -8 -20 -20 -29 -19 -44 5 -10 16 -16 18
-31 9 -24 -16 -91 -3 -91 16 0 8 9 15 19 15 11 0 23 5 26 10 10 16 55 12 55
-5 0 -10 8 -7 26 10 15 14 30 22 35 20 4 -3 11 4 14 15 5 16 14 20 33 18 21
-2 29 -11 38 -44z m234 21 c0 -27 -2 -28 -49 -19 -41 8 -40 32 2 37 17 2 35 5
40 5 4 1 7 -9 7 -23z m-610 -5 c10 -7 12 -12 4 -17 -6 -5 -19 -21 -28 -38
l-17 -30 5 34 c4 18 6 40 6 47 0 16 9 17 30 4z m3488 -79 c-24 -38 -39 -20
-17 21 7 13 14 17 21 10 6 -6 5 -17 -4 -31z m-2401 -31 c1 -14 -4 -20 -18 -20
-21 0 -26 25 -6 33 21 9 23 8 24 -13z m-1207 -6 c0 -8 -5 -12 -10 -9 -6 4 -8
11 -5 16 9 14 15 11 15 -7z m6647 -101 c-3 -10 -5 -4 -5 12 0 17 2 24 5 18 2
-7 2 -21 0 -30z m-6630 -25 c-3 -7 -5 -2 -5 12 0 14 2 19 5 13 2 -7 2 -19 0
-25z m3363 -34 c0 -8 -5 -12 -10 -9 -6 4 -8 11 -5 16 9 14 15 11 15 -7z m-23
-61 c2 -58 -11 -83 -42 -83 -16 0 -25 -6 -25 -15 0 -8 -6 -15 -14 -15 -19 0
-29 17 -16 25 5 3 10 21 10 40 0 49 9 66 44 81 43 18 42 19 43 -33z m3241 -28
c-3 -3 -9 2 -12 12 -6 14 -5 15 5 6 7 -7 10 -15 7 -18z m-3381 -607 c-3 -7 -5
-2 -5 12 0 14 2 19 5 13 2 -7 2 -19 0 -25z m-27 -89 c0 -11 -4 -17 -10 -14 -5
3 -10 15 -10 26 0 11 5 17 10 14 6 -3 10 -15 10 -26z m290 4 c0 -22 -2 -25
-10 -13 -13 20 -13 40 0 40 6 0 10 -12 10 -27z m-336 -105 c-8 -28 -12 -33
-20 -25 -9 8 6 47 17 47 6 0 7 -10 3 -22z m-37 -86 c-8 -42 -51 -111 -55 -90
-2 9 3 27 11 40 8 13 17 35 21 51 9 37 30 36 23 -1z m-72 -159 c-9 -21 -32
-49 -51 -63 -18 -14 -34 -30 -34 -37 0 -7 -9 -17 -21 -23 -11 -7 -29 -19 -39
-28 -35 -33 -72 -62 -77 -62 -3 0 -11 -7 -17 -16 -8 -10 -22 -14 -41 -12 l-30
4 26 11 c28 12 95 56 119 78 72 68 140 142 140 154 0 13 31 43 38 36 2 -2 -4
-21 -13 -42z m2440 -113 c3 -4 2 -15 -1 -24 -12 -32 -86 -9 -77 24 11 39 11
39 42 24 17 -8 33 -19 36 -24z m81 -57 c-10 -10 -19 5 -10 18 6 11 8 11 12 0
2 -7 1 -15 -2 -18z m-3252 -72 c3 -5 -8 -11 -25 -13 -29 -5 -45 3 -32 16 9 9
51 7 57 -3z m404 -23 c-3 -7 -13 -15 -24 -17 -10 -2 -25 -12 -32 -22 -15 -22
-52 -26 -52 -6 0 7 16 19 35 26 19 7 35 17 35 22 0 5 9 9 21 9 12 0 19 -5 17
-12z m-662 -63 c-25 -19 -32 -19 -40 0 -4 11 2 15 27 15 30 -1 31 -1 13 -15z
m-144 -40 c2 -10 -110 -30 -119 -21 -3 3 -3 12 1 21 4 13 18 15 61 13 30 -2
56 -7 57 -13z m3349 -17 c25 -30 29 -31 96 -29 53 2 73 -2 82 -13 7 -9 17 -13
22 -10 5 3 6 -2 3 -10 -3 -9 -1 -16 5 -16 6 0 11 -5 11 -10 0 -13 -126 -2
-155 13 -11 6 -42 14 -70 17 -49 5 -50 6 -51 40 -2 61 17 67 57 18z m-2803 6
c-9 -9 -27 -14 -44 -12 l-29 4 25 11 c14 7 34 12 45 12 18 1 18 0 3 -15z
m-733 -24 c3 -5 2 -10 -4 -10 -5 0 -16 -3 -25 -6 -11 -4 -16 -1 -16 10 0 18
35 22 45 6z m-117 -32 c-3 -7 -24 -16 -49 -19 -24 -4 -54 -10 -66 -14 -18 -6
-23 -3 -24 11 0 18 -1 18 -8 0 -5 -14 -10 -16 -15 -7 -9 14 -9 14 19 29 29 16
148 16 143 0z m-423 -8 c3 -5 -1 -10 -9 -10 -9 0 -16 5 -16 10 0 6 4 10 9 10
6 0 13 -4 16 -10z m-73 -32 c39 -18 35 -24 -12 -20 -32 3 -40 8 -40 24 0 21 2
21 52 -4z m268 12 c0 -5 -9 -10 -21 -10 -11 0 -17 5 -14 10 3 6 13 10 21 10 8
0 14 -4 14 -10z m2040 -36 c0 -9 -7 -14 -17 -12 -25 5 -28 28 -4 28 12 0 21
-6 21 -16z m-2123 0 c-3 -3 -12 -4 -19 -1 -8 3 -5 6 6 6 11 1 17 -2 13 -5z
m-550 -39 c101 5 163 -6 163 -30 0 -23 28 -39 44 -26 17 14 81 11 80 -4 0 -5
-9 -12 -20 -13 -10 -2 -26 -13 -35 -24 -12 -15 -30 -20 -83 -23 -50 -2 -76 -9
-97 -24 -16 -12 -29 -16 -29 -10 0 6 -9 9 -19 6 -23 -6 -63 36 -59 61 1 9 -2
18 -7 20 -6 2 -16 14 -22 27 -9 16 -19 22 -33 18 -23 -6 -26 8 -9 40 l12 21 8
-22 c8 -21 12 -22 106 -17z m268 5 c-3 -5 -13 -10 -21 -10 -8 0 -14 5 -14 10
0 6 9 10 21 10 11 0 17 -4 14 -10z m236 -3 c-1 -12 -15 -9 -19 4 -3 6 1 10 8
8 6 -3 11 -8 11 -12z m-36 -16 c8 -14 -26 -30 -63 -29 -40 1 -40 5 1 23 38 17
54 18 62 6z m2245 -343 c42 -45 15 -111 -38 -92 -35 12 -50 55 -32 89 16 31
43 32 70 3z m56 -311 c35 -31 52 -122 27 -149 -30 -33 -122 -16 -129 25 -1 6
-5 26 -9 42 -7 37 12 75 45 92 33 17 35 17 66 -10z"/>
<path d="M7043 4295 c-3 -9 -3 -18 -1 -21 3 -3 8 4 11 16 6 23 -1 27 -10 5z"/>
<path d="M7079 4230 c-6 -57 -6 -90 1 -90 12 0 21 73 10 84 -6 6 -10 8 -11 6z"/>
<path d="M6872 4168 c-16 -16 -15 -36 2 -53 12 -12 15 -12 20 1 15 40 0 74
-22 52z"/>
<path d="M7076 4122 c-7 -12 0 -240 9 -274 5 -18 3 -28 -4 -28 -14 0 -15 -27
-1 -35 22 -14 38 21 34 78 -1 32 -5 61 -8 66 -4 5 -7 50 -8 101 -2 85 -9 113
-22 92z"/>
<path d="M6507 3994 c-3 -4 0 -13 8 -21 13 -13 17 -13 30 0 13 13 13 16 -1 21
-20 8 -29 8 -37 0z"/>
<path d="M6586 3953 c-3 -7 -12 -13 -21 -13 -25 0 -14 -31 15 -44 8 -3 3 -4
-13 -1 -27 5 -27 4 -25 -35 2 -22 8 -40 15 -40 6 0 9 9 6 21 -5 17 -2 19 20
14 17 -5 28 -2 34 8 4 8 17 16 27 18 15 3 20 13 20 39 1 32 -1 35 -36 41 -26
4 -39 2 -42 -8z"/>
<path d="M6778 3963 c-28 -7 -31 -33 -3 -33 18 0 25 5 25 20 0 11 -1 19 -2 19
-2 -1 -10 -3 -20 -6z"/>
<path d="M6715 3939 c-4 -6 -5 -12 -2 -15 2 -3 7 2 10 11 7 17 1 20 -8 4z"/>
<path d="M6728 3903 c7 -3 16 -2 19 1 4 3 -2 6 -13 5 -11 0 -14 -3 -6 -6z"/>
<path d="M6065 3890 c4 -6 11 -8 16 -5 14 9 11 15 -7 15 -8 0 -12 -5 -9 -10z"/>
<path d="M4017 4356 c-4 -9 -2 -16 3 -16 6 0 10 -6 10 -14 0 -19 16 -23 78
-18 47 4 52 6 52 28 0 21 -4 24 -39 24 -21 0 -52 3 -68 6 -22 4 -32 2 -36 -10z"/>
<path d="M2765 4373 c-22 -2 -55 -6 -74 -9 l-33 -5 22 -16 23 -16 -24 -13
c-21 -12 -15 -13 58 -14 70 0 81 2 77 15 -4 8 -1 21 5 29 17 20 -6 32 -54 29z"/>
<path d="M2955 4370 c-4 -6 -10 -8 -15 -5 -5 3 -11 1 -14 -4 -3 -5 12 -8 34
-7 22 1 40 -1 40 -6 0 -4 -5 -8 -10 -8 -7 0 -7 -6 0 -20 7 -14 21 -20 44 -20
36 0 50 17 39 47 -4 10 -2 14 5 9 6 -3 13 -3 16 2 3 5 -22 8 -55 7 -32 -1 -59
2 -59 7 0 11 -18 10 -25 -2z"/>
<path d="M2845 4360 c-3 -5 1 -10 10 -10 9 0 13 5 10 10 -3 6 -8 10 -10 10 -2
0 -7 -4 -10 -10z"/>
<path d="M2848 4303 c7 -3 16 -2 19 1 4 3 -2 6 -13 5 -11 0 -14 -3 -6 -6z"/>
<path d="M2830 4281 c-22 -6 -23 -8 -7 -14 29 -11 297 -8 297 3 0 6 -44 10
-112 10 -62 0 -122 2 -133 4 -11 3 -31 1 -45 -3z"/>
<path d="M2612 4220 c-32 -5 -32 -6 -17 -27 18 -25 40 -30 49 -10 3 8 11 5 24
-10 18 -20 21 -21 33 -7 9 11 27 14 63 12 47 -3 51 -5 54 -30 4 -31 -18 -41
-80 -36 -27 2 -43 -1 -45 -9 -4 -10 12 -13 58 -13 49 0 70 5 96 23 18 12 33
28 33 35 0 10 14 13 51 10 33 -2 53 1 56 9 6 16 -65 38 -111 34 -21 -2 -41 1
-45 7 -7 11 -167 20 -219 12z"/>
<path d="M1256 4213 c5 -5 12 -12 16 -18 4 -6 8 -2 8 8 0 9 -7 17 -17 17 -9 0
-12 -3 -7 -7z"/>
<path d="M1743 4204 c-3 -8 -1 -20 6 -27 8 -8 11 -4 11 16 0 30 -7 35 -17 11z"/>
<path d="M1840 4199 c0 -16 5 -20 27 -17 17 2 29 10 31 21 3 13 -3 17 -27 17
-25 0 -31 -4 -31 -21z"/>
<path d="M3123 4180 c0 -25 2 -35 4 -22 2 12 2 32 0 45 -2 12 -4 2 -4 -23z"/>
<path d="M3190 4180 c0 -48 15 -53 24 -9 9 45 8 49 -9 49 -11 0 -15 -11 -15
-40z"/>
<path d="M2033 4162 c-3 -12 -12 -20 -21 -20 -75 2 -222 -5 -223 -11 0 -3 -2
-14 -4 -24 -2 -13 5 -19 25 -23 17 -4 31 -15 35 -28 6 -21 6 -21 16 -1 12 24
59 49 59 32 0 -7 14 -12 30 -12 17 0 30 5 30 13 0 17 17 15 24 -3 3 -8 12 -15
19 -15 19 0 51 -36 43 -48 -3 -6 -38 -10 -76 -9 -77 1 -109 -14 -89 -43 8 -12
12 -12 16 -2 4 10 8 9 17 -3 10 -15 15 -15 49 0 24 10 47 13 60 8 12 -4 25 -7
29 -8 4 0 16 -10 28 -22 28 -30 41 -29 27 2 -7 14 -15 25 -19 25 -17 0 -7 28
12 33 24 6 27 32 4 41 -10 4 -13 13 -9 27 5 15 2 22 -14 26 -15 4 -21 15 -23
41 -3 42 -35 59 -45 24z"/>
<path d="M2187 4152 c3 -14 -2 -18 -24 -17 -19 0 -29 -6 -31 -19 -3 -16 1 -18
27 -14 26 4 32 0 40 -23 7 -20 5 -30 -6 -42 -14 -14 -12 -16 22 -26 55 -15 72
1 38 34 -16 16 -15 18 4 34 12 9 24 27 28 41 4 14 4 22 0 18 -3 -3 -15 2 -26
13 -25 25 -79 26 -72 1z"/>
<path d="M3392 4153 c-12 -24 -4 -43 18 -43 29 0 44 25 25 44 -21 21 -32 20
-43 -1z"/>
<path d="M1260 4121 c0 -11 5 -23 10 -26 6 -4 10 5 10 19 0 14 -4 26 -10 26
-5 0 -10 -9 -10 -19z"/>
<path d="M2485 4120 c-10 -17 6 -32 28 -26 12 3 27 0 34 -6 15 -12 50 10 36
22 -14 13 -91 21 -98 10z"/>
<path d="M2370 4100 c-6 -4 -10 -20 -8 -36 2 -21 10 -30 28 -34 16 -4 26 -14
28 -27 2 -16 11 -23 35 -25 29 -3 32 -6 35 -40 3 -36 2 -38 -26 -38 -15 0 -37
8 -48 19 -29 26 -62 35 -79 21 -8 -7 -15 -9 -15 -5 0 4 -7 2 -15 -5 -17 -15
-20 -30 -4 -30 6 0 18 -7 27 -16 14 -15 17 -15 30 2 9 12 16 15 19 8 2 -6 10
-19 17 -29 12 -16 15 -16 44 -1 17 9 44 16 60 16 36 0 45 9 27 27 -19 19 -19
62 0 69 8 4 15 13 15 21 0 10 6 12 20 8 21 -7 27 9 11 34 -6 9 -11 10 -15 2
-4 -6 -18 -11 -32 -11 -30 0 -67 18 -60 28 14 24 -66 59 -94 42z"/>
<path d="M3280 4085 c0 -20 5 -25 25 -25 22 0 24 3 16 19 -17 31 -41 34 -41 6z"/>
<path d="M2617 4057 c-23 -29 -34 -70 -19 -75 7 -2 12 -18 12 -36 0 -35 -26
-80 -41 -71 -15 10 -10 -45 6 -61 21 -22 52 -9 58 25 9 42 36 48 50 11 6 -16
18 -31 27 -34 12 -3 11 -4 -2 -5 -10 0 -18 -6 -18 -11 0 -7 13 -8 35 -4 33 6
37 4 48 -25 11 -30 27 -42 27 -20 0 7 22 10 63 8 72 -4 91 4 84 37 -2 13 0 24
4 24 5 0 9 18 9 40 0 38 -2 40 -30 40 -35 0 -40 -22 -13 -52 20 -22 14 -29
-29 -33 -28 -2 -35 2 -48 29 -17 35 -52 44 -101 27 -26 -9 -29 -8 -29 10 0 13
-7 19 -23 19 -13 0 -28 5 -35 12 -13 13 -17 68 -4 68 4 0 14 16 21 36 11 32
11 37 -6 49 -24 19 -25 19 -46 -8z m218 -267 c-3 -5 -13 -10 -21 -10 -8 0 -14
5 -14 10 0 6 9 10 21 10 11 0 17 -4 14 -10z"/>
<path d="M1294 3956 c-3 -14 -1 -33 5 -43 8 -15 10 -10 11 25 0 47 -6 55 -16
18z"/>
<path d="M2156 3965 c-3 -9 0 -15 9 -15 8 0 15 7 15 15 0 8 -4 15 -9 15 -5 0
-11 -7 -15 -15z"/>
<path d="M1608 3953 c7 -3 16 -2 19 1 4 3 -2 6 -13 5 -11 0 -14 -3 -6 -6z"/>
<path d="M1701 3926 c-10 -11 -8 -19 6 -35 21 -26 43 -27 43 -3 0 13 2 14 9 4
7 -11 9 -11 13 0 14 36 -46 64 -71 34z"/>
<path d="M1527 3893 c-16 -15 -5 -23 31 -23 35 1 36 2 18 15 -21 16 -39 19
-49 8z"/>
<path d="M2200 3891 c0 -10 28 -41 36 -41 2 0 4 11 4 25 0 18 -5 25 -20 25
-11 0 -20 -4 -20 -9z"/>
<path d="M2830 3890 c0 -5 11 -10 25 -10 14 0 25 5 25 10 0 6 -11 10 -25 10
-14 0 -25 -4 -25 -10z"/>
<path d="M3020 3889 c0 -6 8 -8 19 -4 10 3 24 -1 31 -10 22 -26 60 -13 60 21
0 2 -25 4 -55 4 -32 0 -55 -4 -55 -11z"/>
<path d="M1840 3855 c0 -8 6 -15 14 -15 7 0 19 7 26 15 11 13 8 15 -14 15 -16
0 -26 -5 -26 -15z"/>
<path d="M2160 3825 c0 -17 2 -18 24 -9 18 7 12 24 -10 24 -8 0 -14 -7 -14
-15z"/>
<path d="M2298 3812 c-4 -19 13 -72 23 -72 7 0 19 36 19 57 0 7 -9 17 -19 23
-16 8 -20 6 -23 -8z"/>
<path d="M1840 3790 c0 -31 11 -39 27 -17 7 8 4 18 -9 30 -17 16 -18 16 -18
-13z"/>
<path d="M5177 4222 c-11 -2 -27 -12 -38 -23 -10 -10 -33 -19 -49 -19 -29 0
-30 -2 -28 -35 1 -24 6 -34 15 -31 7 3 15 1 18 -4 9 -15 25 -12 25 5 0 22 72
84 97 85 12 0 24 4 27 9 6 10 -39 19 -67 13z"/>
<path d="M4896 4204 c-10 -27 -7 -44 9 -44 8 0 15 3 15 8 0 4 3 17 6 30 7 26
-20 32 -30 6z"/>
<path d="M5335 4210 c3 -5 15 -10 26 -10 12 0 29 -16 47 -45 25 -41 42 -57 42
-37 0 4 10 8 21 9 32 3 33 8 5 36 -14 15 -26 31 -26 37 0 6 -4 9 -9 5 -5 -3
-12 -1 -16 5 -3 5 -26 10 -51 10 -28 0 -43 -4 -39 -10z"/>
<path d="M4932 4128 c-14 -14 -16 -54 -3 -62 5 -4 11 -1 13 5 6 17 58 21 58 4
0 -28 -13 -45 -35 -45 -32 0 -37 -12 -19 -38 11 -17 21 -21 40 -16 13 3 30 1
38 -5 10 -9 15 -8 20 4 3 9 2 13 -4 10 -6 -3 -11 6 -11 22 -3 54 -6 73 -17 85
-10 13 -12 18 -12 38 0 14 -54 12 -68 -2z"/>
<path d="M4882 4080 c0 -14 2 -19 5 -12 2 6 2 18 0 25 -3 6 -5 1 -5 -13z"/>
<path d="M5218 4048 c9 -9 15 -9 24 0 9 9 7 12 -12 12 -19 0 -21 -3 -12 -12z"/>
<path d="M5118 4025 c7 -29 25 -51 40 -49 6 1 19 2 27 3 10 1 15 11 15 30 0
27 -3 29 -43 32 -40 4 -43 2 -39 -16z"/>
<path d="M5260 3990 c0 -5 5 -10 10 -10 6 0 10 5 10 10 0 6 -4 10 -10 10 -5 0
-10 -4 -10 -10z"/>
<path d="M5592 3800 c0 -14 2 -19 5 -12 2 6 2 18 0 25 -3 6 -5 1 -5 -13z"/>
<path d="M3906 3823 c-9 -10 -7 -83 3 -83 11 0 21 25 21 55 0 25 -12 39 -24
28z"/>
<path d="M572 3944 c-7 -7 -12 -30 -11 -51 0 -35 1 -36 11 -15 6 12 17 22 25
22 16 0 16 2 0 32 -10 20 -15 23 -25 12z"/>
<path d="M680 3925 c0 -16 6 -25 16 -25 11 0 14 5 10 16 -3 9 -6 20 -6 25 0 5
-4 9 -10 9 -5 0 -10 -11 -10 -25z"/>
<path d="M642 3920 c0 -14 2 -19 5 -12 2 6 2 18 0 25 -3 6 -5 1 -5 -13z"/>
<path d="M1960 3109 c0 -5 5 -7 10 -4 6 3 10 8 10 11 0 2 -4 4 -10 4 -5 0 -10
-5 -10 -11z"/>
<path d="M7061 3074 c-6 -25 -9 -49 -6 -55 4 -5 -2 -9 -11 -9 -10 0 -14 3 -11
7 10 9 -27 32 -38 23 -5 -4 -32 -10 -60 -14 -27 -3 -66 -8 -85 -11 -74 -12
-85 -11 -82 8 2 12 -4 17 -22 17 -14 0 -28 -4 -31 -10 -3 -5 -28 -10 -56 -10
-48 0 -49 -1 -49 -29 l0 -30 99 1 c55 0 114 -3 131 -7 18 -4 44 -2 61 5 25 11
32 10 48 -4 22 -20 31 -20 46 1 23 31 35 4 35 -75 0 -66 2 -74 14 -62 8 8 16
33 17 55 2 22 10 54 18 70 22 45 27 140 8 159 -13 14 -16 10 -26 -30z"/>
<path d="M484 3038 c4 -40 13 -82 21 -95 8 -12 17 -45 19 -74 3 -28 12 -59 20
-68 9 -10 22 -35 30 -57 10 -26 15 -32 15 -18 1 12 6 36 13 54 10 31 12 32 25
14 12 -16 15 -17 23 -4 21 33 7 47 -38 41 -8 -1 -22 5 -33 15 -16 14 -17 26
-12 76 6 55 4 59 -13 56 -13 -2 -20 4 -22 20 -2 12 1 22 6 22 14 0 -30 78 -47
85 -11 5 -13 -7 -7 -67z"/>
<path d="M3628 3094 c-5 -4 -8 -16 -8 -28 0 -14 3 -17 11 -9 6 6 9 19 7 28 -1
9 -6 13 -10 9z"/>
<path d="M4393 3063 c9 -2 23 -2 30 0 6 3 -1 5 -18 5 -16 0 -22 -2 -12 -5z"/>
<path d="M6190 3036 c0 -11 9 -16 30 -16 20 0 39 -9 53 -23 30 -32 84 -42 109
-21 32 30 23 47 -21 41 -24 -3 -47 0 -58 8 -10 7 -40 16 -66 20 -39 6 -47 5
-47 -9z"/>
<path d="M610 3030 c0 -5 5 -10 11 -10 5 0 7 5 4 10 -3 6 -8 10 -11 10 -2 0
-4 -4 -4 -10z"/>
<path d="M5984 3025 c-10 -8 -34 -15 -52 -15 -19 0 -45 -9 -59 -20 l-26 -20
39 -1 c22 -1 43 -1 48 0 5 1 40 -3 76 -10 107 -19 185 8 105 36 -20 7 -29 7
-32 -1 -4 -13 -43 -7 -43 6 0 4 17 11 38 15 31 6 34 9 17 15 -33 14 -90 11
-111 -5z"/>
<path d="M943 3023 c9 -2 23 -2 30 0 6 3 -1 5 -18 5 -16 0 -22 -2 -12 -5z"/>
<path d="M2355 3020 c-3 -5 -2 -10 4 -10 5 0 13 5 16 10 3 6 2 10 -4 10 -5 0
-13 -4 -16 -10z"/>
<path d="M2560 3014 c0 -8 5 -12 10 -9 6 3 10 10 10 16 0 5 -4 9 -10 9 -5 0
-10 -7 -10 -16z"/>
<path d="M3040 3021 c0 -8 11 -10 34 -6 26 5 36 3 43 -10 6 -9 17 -15 26 -14
11 3 14 8 8 18 -11 18 -111 28 -111 12z"/>
<path d="M1135 3009 c-4 -6 -5 -13 -2 -16 7 -7 27 6 27 18 0 12 -17 12 -25 -2z"/>
<path d="M2732 2998 c5 -15 37 -18 41 -3 1 6 -9 12 -22 13 -16 3 -22 -1 -19
-10z"/>
<path d="M3446 2982 c-4 -10 -16 -29 -28 -42 -13 -13 -24 -34 -26 -46 -2 -20
3 -24 43 -30 34 -5 50 -3 63 8 9 8 25 18 35 21 18 7 18 16 0 65 -3 6 1 12 8
12 16 1 -60 30 -78 30 -6 0 -14 -8 -17 -18z"/>
<path d="M3950 2980 c0 -11 5 -20 10 -20 6 0 10 9 10 20 0 11 -4 20 -10 20 -5
0 -10 -9 -10 -20z"/>
<path d="M1280 2980 c0 -5 7 -10 16 -10 8 0 12 5 9 10 -3 6 -10 10 -16 10 -5
0 -9 -4 -9 -10z"/>
<path d="M4788 2976 c-22 -17 -13 -54 16 -62 12 -3 44 4 71 16 l50 21 -25 19
c-29 22 -87 25 -112 6z"/>
<path d="M5219 2973 c-9 -10 -7 -13 10 -13 11 0 21 -4 21 -10 0 -5 -8 -10 -17
-10 -14 0 -15 -2 -5 -9 7 -4 24 -6 36 -4 13 3 27 0 30 -6 9 -13 83 -15 91 -2
3 6 -11 13 -32 16 -66 11 -60 14 25 13 45 0 85 2 89 6 16 16 -20 24 -125 28
-85 3 -115 1 -123 -9z"/>
<path d="M3179 2973 c-1 -5 0 -20 1 -34 1 -25 -2 -27 -52 -33 -29 -4 -69 -2
-88 4 -44 13 -160 13 -160 0 0 -5 10 -12 23 -15 65 -14 131 -22 148 -18 11 3
26 0 34 -7 8 -6 36 -12 62 -12 40 0 51 5 70 29 13 15 23 36 23 45 0 24 -58 63
-61 41z"/>
<path d="M4540 2970 c-8 -5 -29 -9 -45 -8 -35 2 -58 -9 -50 -23 16 -24 146 -2
149 26 1 14 -36 17 -54 5z"/>
<path d="M4943 2973 c-37 -13 13 -59 50 -47 12 4 29 8 37 8 8 1 15 8 15 16 0
10 -8 14 -27 12 -15 -2 -35 1 -45 6 -10 5 -24 7 -30 5z"/>
<path d="M5076 2965 c-18 -14 -18 -15 8 -25 38 -14 56 -13 62 5 4 8 18 16 33
16 26 1 26 1 -4 9 -47 12 -78 11 -99 -5z"/>
<path d="M4026 2951 c-5 -7 -14 -10 -20 -8 -7 3 -19 1 -27 -4 -11 -7 -9 -9 9
-9 12 0 22 -4 22 -9 0 -9 53 -31 76 -31 24 0 15 18 -11 24 -14 4 -29 16 -34
28 -5 15 -10 18 -15 9z"/>
<path d="M1460 2919 c0 -18 5 -21 30 -17 17 3 30 1 30 -4 0 -5 5 -6 10 -3 17
10 11 25 -9 25 -11 0 -23 5 -26 10 -11 18 -35 10 -35 -11z"/>
<path d="M2611 2926 c-13 -16 3 -33 32 -33 20 0 21 6 3 30 -16 21 -20 21 -35
3z"/>
<path d="M3316 2914 c-3 -9 -2 -23 4 -32 7 -14 9 -10 10 16 0 35 -5 41 -14 16z"/>
<path d="M3585 2920 c-3 -5 -1 -10 4 -10 6 0 11 5 11 10 0 6 -2 10 -4 10 -3 0
-8 -4 -11 -10z"/>
<path d="M590 2910 c0 -5 5 -10 10 -10 6 0 10 5 10 10 0 6 -4 10 -10 10 -5 0
-10 -4 -10 -10z"/>
<path d="M2816 2884 c-4 -11 -13 -14 -31 -10 -39 10 -65 -13 -65 -56 0 -30 4
-38 18 -38 24 0 52 31 52 57 0 14 10 23 32 29 17 5 33 15 36 22 6 18 -35 15
-42 -4z"/>
<path d="M4592 2859 c-22 -34 2 -52 60 -47 26 3 50 2 53 -1 3 -3 21 -4 40 -2
31 2 34 0 37 -31 2 -26 7 -32 22 -30 10 2 43 -9 75 -24 43 -21 72 -27 123 -28
38 -1 68 -5 68 -10 0 -6 6 -1 14 10 19 26 5 33 -76 40 -35 3 -73 12 -85 20
-12 8 -31 14 -42 14 -11 0 -32 5 -48 11 -27 10 -27 11 -9 24 18 14 18 15 -6
24 -30 11 -82 21 -118 23 -14 1 -34 8 -45 15 -28 19 -48 16 -63 -8z"/>
<path d="M1130 2860 c-12 -8 -12 -12 0 -36 19 -35 58 -54 71 -33 16 25 10 44
-20 62 -34 20 -32 19 -51 7z"/>
<path d="M2435 2861 c-16 -3 -28 -11 -25 -16 3 -6 -22 -12 -60 -16 -80 -7
-186 -37 -174 -49 16 -16 94 -21 117 -8 12 7 24 13 27 13 3 1 18 7 33 13 38
16 47 15 47 -4 0 -14 5 -13 35 5 20 11 49 22 66 23 24 2 29 6 27 23 -3 22 -39
28 -93 16z"/>
<path d="M5615 2850 c-18 -20 -17 -20 23 -20 46 0 51 6 25 26 -24 18 -27 17
-48 -6z"/>
<path d="M6788 2862 c-29 -4 -46 -30 -24 -38 19 -7 94 14 102 29 4 6 4 9 0 5
-5 -4 -18 -3 -30 0 -11 4 -33 6 -48 4z"/>
<path d="M6996 2858 c-3 -7 -6 -39 -9 -70 -4 -57 -15 -85 -24 -60 -12 32 -21
6 -16 -47 3 -33 3 -67 -1 -77 -6 -16 -7 -16 -20 1 -12 17 -13 17 -19 -4 -8
-32 3 -89 18 -95 9 -3 16 8 20 34 4 21 13 44 21 51 8 6 14 28 14 48 0 25 7 42
21 54 18 16 20 27 18 93 -3 70 -13 103 -23 72z"/>
<path d="M900 2851 c0 -31 14 -41 56 -41 45 0 57 13 32 38 -14 14 -88 16 -88
3z"/>
<path d="M2155 2846 c11 -8 24 -12 29 -8 5 3 1 9 -10 13 -31 12 -39 10 -19 -5z"/>
<path d="M3273 2853 c-46 -4 -55 -16 -24 -33 29 -15 77 -12 92 6 10 13 10 17
-2 25 -8 5 -16 8 -19 7 -3 -1 -24 -3 -47 -5z"/>
<path d="M4160 2844 c0 -6 14 -14 31 -18 45 -9 49 -8 49 12 0 14 -8 18 -40 17
-23 0 -40 -5 -40 -11z"/>
<path d="M4951 2851 c-1 -9 -9 -11 -24 -8 -23 6 -56 -7 -45 -18 3 -3 24 -5 46
-3 35 3 38 5 31 23 -4 11 -8 14 -8 6z"/>
<path d="M6881 2844 c0 -11 3 -14 6 -6 3 7 2 16 -1 19 -3 4 -6 -2 -5 -13z"/>
<path d="M5730 2840 c0 -5 7 -10 15 -10 8 0 15 5 15 10 0 6 -7 10 -15 10 -8 0
-15 -4 -15 -10z"/>
<path d="M6009 2834 c-9 -11 -8 -14 2 -15 44 -4 73 16 35 23 -15 3 -31 -1 -37
-8z"/>
<path d="M6240 2834 c0 -15 26 -19 34 -5 3 5 -3 11 -14 14 -13 3 -20 0 -20 -9z"/>
<path d="M6365 2840 c-3 -5 3 -10 14 -10 12 0 21 5 21 10 0 6 -6 10 -14 10 -8
0 -18 -4 -21 -10z"/>
<path d="M6533 2842 c-44 -6 -17 -40 38 -47 48 -6 69 3 69 29 0 20 -5 23 -42
22 -24 -1 -53 -2 -65 -4z"/>
<path d="M1268 2833 c-26 -6 -23 -50 2 -58 12 -4 26 -2 33 3 7 6 24 9 39 7 16
-2 30 1 34 6 3 5 14 9 25 9 10 0 19 5 19 11 0 6 -12 10 -27 8 -16 -1 -41 3
-56 10 -29 11 -39 12 -69 4z"/>
<path d="M2566 2828 c5 -7 2 -9 -8 -6 -13 5 -14 3 -4 -18 6 -13 16 -24 23 -24
25 0 0 -29 -38 -44 -41 -16 -52 -36 -21 -37 13 0 11 -3 -7 -12 -19 -9 -25 -9
-29 1 -3 9 -7 8 -18 -2 -11 -11 -22 -12 -49 -5 -32 9 -39 7 -66 -15 -34 -29
-40 -31 -56 -15 -8 8 -33 8 -89 -1 -88 -12 -124 -26 -124 -48 0 -11 -8 -13
-37 -7 -21 4 -56 6 -78 5 -22 -2 -60 -4 -85 -4 -33 -1 -45 -5 -45 -16 0 -8 -4
-18 -10 -22 -6 -5 -5 -11 4 -17 10 -6 12 -20 8 -45 -6 -35 -5 -36 21 -30 15 4
35 14 45 22 21 19 92 24 124 9 18 -8 31 -6 57 8 30 16 34 23 30 49 -3 23 -2
25 4 9 11 -33 39 -63 61 -63 24 0 52 31 34 37 -19 7 -16 33 5 40 9 3 24 12 32
18 11 9 22 10 40 2 42 -17 97 -18 104 -2 3 9 19 15 41 15 19 0 35 5 35 11 0 5
4 8 9 5 5 -3 11 4 14 15 4 16 13 20 39 19 90 -5 120 0 125 20 3 11 9 20 14 20
5 0 9 5 9 10 0 6 -12 9 -27 7 -19 -3 -28 -10 -27 -21 2 -17 -22 -21 -45 -7
-12 8 -10 16 12 48 29 42 34 72 15 91 -16 16 -52 16 -42 0z m-191 -208 c3 -5
-3 -10 -15 -10 -12 0 -18 5 -15 10 3 6 10 10 15 10 5 0 12 -4 15 -10z m-215
-60 c0 -11 -7 -20 -15 -20 -27 0 -18 30 13 39 1 1 2 -8 2 -19z"/>
<path d="M5348 2833 c12 -2 30 -2 40 0 9 3 -1 5 -23 4 -22 0 -30 -2 -17 -4z"/>
<path d="M707 2823 c-8 -8 -9 -47 -2 -55 4 -3 16 -1 29 5 20 10 22 15 13 34
-10 23 -27 29 -40 16z"/>
<path d="M1077 2824 c-13 -13 -7 -24 14 -24 11 0 19 5 17 12 -5 14 -22 21 -31
12z"/>
<path d="M1941 2811 c-24 -15 -22 -41 2 -42 57 -3 82 15 53 37 -23 16 -35 17
-55 5z"/>
<path d="M2055 2806 c-16 -11 -17 -17 -7 -29 9 -11 25 -14 55 -10 51 7 64 17
47 38 -16 19 -70 20 -95 1z"/>
<path d="M2834 2801 c3 -5 -3 -11 -14 -14 -11 -3 -20 -10 -20 -16 0 -14 27
-14 36 0 3 6 15 9 25 6 10 -3 22 -1 25 4 3 5 -2 9 -10 9 -9 0 -16 5 -16 10 0
6 -7 10 -16 10 -8 0 -13 -4 -10 -9z"/>
<path d="M4112 2799 c2 -6 8 -10 13 -10 5 0 11 4 13 10 2 6 -4 11 -13 11 -9 0
-15 -5 -13 -11z"/>
<path d="M4190 2800 c0 -5 5 -10 10 -10 6 0 10 5 10 10 0 6 -4 10 -10 10 -5 0
-10 -4 -10 -10z"/>
<path d="M3395 2775 c-5 -2 -22 -6 -37 -9 -52 -12 -30 -27 32 -24 46 2 60 7
60 18 0 15 -31 23 -55 15z"/>
<path d="M4190 2760 c0 -5 5 -10 10 -10 6 0 10 5 10 10 0 6 -4 10 -10 10 -5 0
-10 -4 -10 -10z"/>
<path d="M5176 2745 c-6 -17 13 -29 40 -23 17 3 17 4 0 21 -21 21 -32 22 -40
2z"/>
<path d="M2785 2741 c-3 -5 -1 -12 5 -16 5 -3 10 1 10 9 0 18 -6 21 -15 7z"/>
<path d="M5628 2732 c-21 -2 -38 -7 -38 -12 0 -13 33 -21 72 -18 19 1 39 -2
46 -6 7 -4 19 -2 27 4 8 6 36 11 62 10 70 -3 78 -1 68 9 -10 10 -171 18 -237
13z"/>
<path d="M5348 2722 c-10 -2 -18 -8 -18 -14 0 -5 6 -8 14 -5 8 3 16 1 18 -4 2
-6 15 -8 31 -4 55 14 12 39 -45 27z"/>
<path d="M5437 2723 c-12 -12 -7 -21 15 -27 27 -6 100 13 92 25 -6 10 -98 12
-107 2z"/>
<path d="M6080 2718 c0 -4 9 -8 20 -8 11 0 20 4 20 9 0 6 -9 9 -20 8 -11 -1
-20 -5 -20 -9z"/>
<path d="M6250 2720 c-12 -8 -12 -10 3 -16 22 -8 70 4 62 16 -8 13 -45 13 -65
0z"/>
<path d="M6745 2721 c-7 -13 30 -24 55 -16 28 9 15 25 -20 25 -16 0 -31 -4
-35 -9z"/>
<path d="M6890 2709 c0 -11 4 -18 10 -14 5 3 7 12 3 20 -7 21 -13 19 -13 -6z"/>
<path d="M1091 2663 c-31 -28 -41 -43 -36 -55 9 -22 35 -24 35 -3 0 8 7 15 15
15 8 0 14 5 13 11 -2 6 14 13 36 16 21 2 48 8 58 14 11 6 32 8 48 4 28 -6 47
6 35 24 -3 6 -17 6 -36 -1 -22 -8 -34 -7 -42 1 -6 6 -28 11 -48 11 -28 0 -46
-9 -78 -37z"/>
<path d="M1586 2685 c-21 -16 -13 -35 14 -35 25 0 35 19 19 35 -12 12 -17 12
-33 0z"/>
<path d="M2936 2678 c-3 -13 -1 -27 4 -32 7 -7 10 -6 10 3 0 7 4 10 9 7 4 -3
13 6 19 19 11 23 9 25 -12 25 -16 0 -26 -7 -30 -22z"/>
<path d="M3225 2690 c4 -6 11 -8 16 -5 14 9 11 15 -7 15 -8 0 -12 -5 -9 -10z"/>
<path d="M4260 2690 c0 -13 30 -13 50 0 11 7 7 10 -17 10 -18 0 -33 -4 -33
-10z"/>
<path d="M1412 2682 c-49 -5 -34 -26 26 -36 42 -7 54 -6 68 8 9 9 15 19 12 21
-6 7 -70 11 -106 7z"/>
<path d="M4340 2665 c0 -8 17 -19 43 -26 23 -6 47 -15 54 -21 17 -13 73 0 73
18 0 16 -41 29 -69 21 -10 -2 -29 2 -42 9 -32 18 -59 17 -59 -1z"/>
<path d="M611 2656 c-14 -17 -7 -66 9 -66 14 0 23 46 13 65 -9 15 -11 15 -22
1z"/>
<path d="M2876 2644 c-12 -31 -6 -54 13 -54 25 0 30 9 24 43 -6 30 -27 36 -37
11z"/>
<path d="M4578 2653 c-34 -3 -48 -8 -48 -19 0 -10 13 -14 49 -14 27 0 55 -2
63 -3 7 -2 9 -2 5 1 -4 2 0 10 10 18 10 7 13 14 6 14 -6 0 -17 1 -25 3 -7 2
-34 2 -60 0z"/>
<path d="M1485 2610 c3 -5 11 -10 16 -10 16 0 39 -27 39 -44 0 -17 -61 -33
-81 -20 -7 4 -40 6 -73 5 -55 -2 -64 -5 -88 -34 -15 -18 -28 -34 -28 -37 0 -3
26 -6 58 -5 44 0 64 5 86 23 l29 22 22 -20 c18 -17 30 -19 71 -14 79 9 90 12
90 31 1 10 3 24 5 32 3 10 -12 20 -43 30 -38 13 -46 20 -42 34 4 14 -1 17 -31
17 -22 0 -34 -4 -30 -10z m108 -107 c-7 -2 -19 -2 -25 0 -7 3 -2 5 12 5 14 0
19 -2 13 -5z"/>
<path d="M2760 2590 c0 -5 9 -10 20 -10 11 0 20 5 20 10 0 6 -9 10 -20 10 -11
0 -20 -4 -20 -10z"/>
<path d="M6540 2591 c0 -5 10 -11 23 -15 32 -8 34 -8 41 9 4 12 -3 15 -29 15
-19 0 -35 -4 -35 -9z"/>
<path d="M1668 2579 c-12 -6 -18 -22 -18 -44 0 -33 2 -35 35 -35 19 0 38 0 42
-1 4 0 9 4 11 10 2 6 -6 11 -17 11 -24 0 -25 4 -11 31 7 12 21 19 40 19 17 0
30 5 30 10 0 13 -90 12 -112 -1z"/>
<path d="M638 2575 c-7 -8 43 -156 58 -172 21 -22 23 44 3 76 -10 16 -19 44
-21 63 -3 30 -24 48 -40 33z"/>
<path d="M4680 2566 c-81 -46 -112 -59 -120 -46 -4 7 -13 9 -20 5 -8 -5 -6
-12 7 -25 11 -11 20 -13 25 -7 12 19 38 -14 38 -48 0 -37 31 -71 56 -61 11 4
14 13 10 31 -6 23 -4 25 29 25 30 0 35 3 35 23 0 15 -11 29 -30 40 -42 25 -38
36 13 36 70 -1 113 3 97 9 -8 3 -18 9 -21 15 -11 16 -92 19 -119 3z"/>
<path d="M2640 2514 c0 -26 4 -34 18 -34 18 0 42 18 42 31 0 4 -13 14 -30 23
l-30 14 0 -34z"/>
<path d="M2812 2518 c4 -31 21 -32 35 -3 10 23 9 25 -14 25 -19 0 -24 -4 -21
-22z"/>
<path d="M2426 2522 c-3 -2 -3 -8 -1 -12 6 -9 55 0 55 10 0 8 -46 10 -54 2z"/>
<path d="M4915 2500 c-47 -5 -92 -25 -93 -43 -3 -38 -15 -67 -25 -59 -7 6 -21
6 -34 1 -33 -12 -28 -23 6 -16 21 4 34 1 46 -13 20 -22 48 -15 40 10 -6 19 18
30 67 30 40 0 58 10 58 31 0 21 16 26 22 7 3 -8 12 -2 22 14 31 47 20 51 -109
38z"/>
<path d="M6886 2501 c-4 -6 -4 -15 -1 -21 10 -16 -43 -59 -65 -53 -26 7 -25
-9 1 -33 14 -13 19 -27 16 -47 -6 -41 16 -28 27 16 5 20 15 37 21 37 16 0 28
76 17 97 -6 11 -11 12 -16 4z"/>
<path d="M4458 2483 c7 -3 16 -2 19 1 4 3 -2 6 -13 5 -11 0 -14 -3 -6 -6z"/>
<path d="M2270 2455 c-6 -17 -17 -25 -34 -25 -30 0 -58 -56 -35 -71 28 -17 41
-10 37 20 -3 22 -1 27 12 24 10 -3 30 7 46 20 24 21 27 27 15 41 -19 22 -30
20 -41 -9z"/>
<path d="M1190 2455 c-9 -11 -16 -13 -24 -5 -15 15 -35 12 -54 -6 -14 -15 -17
-15 -27 0 -13 17 -55 22 -55 6 0 -5 12 -20 27 -34 20 -19 30 -22 40 -14 7 6
22 8 32 5 11 -3 28 1 38 8 11 9 22 10 29 4 8 -6 17 -1 27 15 15 22 15 25 1 30
-21 8 -20 8 -34 -9z"/>
<path d="M2876 2461 c3 -3 24 -13 48 -22 41 -15 44 -15 55 2 17 29 15 30 -48
27 -33 -1 -58 -5 -55 -7z"/>
<path d="M1353 2433 c-16 -6 -16 -21 0 -37 10 -10 19 -10 45 1 28 11 32 16 22
28 -12 15 -43 18 -67 8z"/>
<path d="M2332 2429 c2 -6 8 -10 13 -10 5 0 11 4 13 10 2 6 -4 11 -13 11 -9 0
-15 -5 -13 -11z"/>
<path d="M6028 2435 c-3 -3 -28 -6 -56 -6 -40 -1 -51 -5 -55 -20 -7 -26 12
-35 27 -13 12 15 17 16 45 5 17 -8 40 -11 51 -8 11 3 20 1 20 -4 0 -5 11 -2
25 7 26 17 24 40 -2 30 -8 -3 -23 -2 -32 4 -10 5 -21 7 -23 5z"/>
<path d="M1468 2423 c7 -3 16 -2 19 1 4 3 -2 6 -13 5 -11 0 -14 -3 -6 -6z"/>
<path d="M5645 2410 c-4 -6 -16 -10 -26 -7 -26 7 -25 -20 1 -28 25 -8 58 21
42 37 -6 6 -12 6 -17 -2z"/>
<path d="M834 2395 c-4 -8 -12 -15 -20 -15 -8 0 -14 -6 -14 -14 0 -10 10 -14
34 -12 40 4 56 12 56 32 0 8 -4 13 -9 9 -5 -3 -12 -1 -16 5 -9 15 -25 12 -31
-5z"/>
<path d="M3216 2394 c-9 -24 -8 -26 14 -14 11 6 20 15 20 20 0 16 -27 11 -34
-6z"/>
<path d="M5250 2400 c0 -5 5 -10 12 -10 6 0 20 -8 30 -17 16 -15 21 -15 28 -3
11 18 2 33 -16 26 -7 -3 -16 -1 -19 4 -8 13 -35 13 -35 0z"/>
<path d="M4702 2380 c-6 -10 -8 -21 -5 -24 10 -10 51 -7 58 4 3 6 2 10 -4 10
-5 0 -16 6 -24 14 -11 12 -15 11 -25 -4z"/>
<path d="M990 2375 c-11 -13 -8 -15 13 -15 19 0 25 4 21 15 -4 8 -10 15 -14
15 -4 0 -13 -7 -20 -15z"/>
<path d="M5336 2364 c-5 -12 2 -44 9 -44 1 0 19 7 40 16 29 12 35 18 26 27
-17 17 -69 17 -75 1z"/>
<path d="M1905 2350 c-3 -5 -1 -10 4 -10 6 0 11 5 11 10 0 6 -2 10 -4 10 -3 0
-8 -4 -11 -10z"/>
<path d="M6262 2349 c2 -6 8 -10 13 -10 5 0 11 4 13 10 2 6 -4 11 -13 11 -9 0
-15 -5 -13 -11z"/>
<path d="M4470 2341 c0 -5 -8 -12 -17 -14 -14 -4 -12 -5 5 -6 13 -1 22 5 22
14 0 8 -2 15 -5 15 -3 0 -5 -4 -5 -9z"/>
<path d="M6408 2323 c-9 -10 -13 -24 -11 -30 3 -7 0 -13 -6 -13 -25 0 -8 -22
33 -42 34 -16 47 -18 57 -9 8 6 23 18 33 25 18 12 18 15 3 36 -16 23 -60 50
-82 50 -6 0 -19 -8 -27 -17z"/>
<path d="M4949 2320 c-7 -5 -10 -12 -6 -16 12 -12 -14 -34 -39 -34 -26 0 -33
-24 -10 -33 20 -8 85 3 93 16 3 5 -2 14 -11 19 -20 11 -21 28 -1 28 8 0 15 -4
15 -10 0 -12 27 -13 34 -2 8 13 -59 41 -75 32z"/>
<path d="M3105 2300 c-3 -5 -1 -10 4 -10 6 0 11 5 11 10 0 6 -2 10 -4 10 -3 0
-8 -4 -11 -10z"/>
<path d="M6720 2300 c0 -5 5 -10 11 -10 5 0 7 5 4 10 -3 6 -8 10 -11 10 -2 0
-4 -4 -4 -10z"/>
<path d="M6796 2294 c-3 -9 -3 -27 0 -41 7 -25 8 -25 20 -8 8 11 14 26 14 36
0 22 -27 32 -34 13z"/>
<path d="M1990 2295 c0 -5 5 -17 10 -25 5 -8 10 -10 10 -5 0 6 -5 17 -10 25
-5 8 -10 11 -10 5z"/>
<path d="M1280 2265 c0 -8 7 -15 15 -15 8 0 15 7 15 15 0 8 -7 15 -15 15 -8 0
-15 -7 -15 -15z"/>
<path d="M1773 2273 c-7 -2 -13 -12 -13 -20 0 -10 -6 -13 -15 -9 -9 3 -18 -1
-22 -9 -4 -12 -16 -14 -52 -10 -46 5 -46 4 -18 -11 15 -8 27 -19 27 -24 0 -15
37 -12 43 3 3 8 24 15 49 16 41 3 85 7 101 10 4 0 7 10 7 21 0 30 -66 50 -107
33z"/>
<path d="M2432 2268 c2 -6 12 -16 21 -22 13 -8 20 -7 27 4 7 11 4 17 -8 22
-27 11 -44 9 -40 -4z"/>
<path d="M2871 2262 c-13 -25 2 -38 19 -16 9 10 10 18 3 25 -8 8 -14 5 -22 -9z"/>
<path d="M2088 2251 c-15 -13 -33 -18 -46 -14 -16 4 -22 1 -22 -10 0 -10 6
-13 21 -10 17 5 20 2 17 -22 -2 -16 2 -30 10 -32 8 -3 12 8 12 36 0 34 3 41
20 41 11 0 20 7 20 15 0 19 -2 19 -32 -4z"/>
<path d="M2880 2210 c20 -13 47 -13 55 0 4 6 -9 10 -32 10 -28 0 -34 -3 -23
-10z"/>
<path d="M4785 2190 c3 -5 8 -10 11 -10 2 0 4 5 4 10 0 6 -5 10 -11 10 -5 0
-7 -4 -4 -10z"/>
<path d="M6515 2180 c4 -6 11 -8 16 -5 14 9 11 15 -7 15 -8 0 -12 -5 -9 -10z"/>
<path d="M5520 2160 c0 -5 7 -10 15 -10 8 0 15 5 15 10 0 6 -7 10 -15 10 -8 0
-15 -4 -15 -10z"/>
<path d="M4875 2150 c-3 -5 -1 -10 4 -10 6 0 11 5 11 10 0 6 -2 10 -4 10 -3 0
-8 -4 -11 -10z"/>
<path d="M1536 2141 c-3 -4 0 -15 7 -24 17 -23 122 -29 122 -7 0 11 -9 14 -32
12 -25 -2 -33 1 -33 12 0 17 -54 23 -64 7z"/>
<path d="M5610 2125 c7 -8 16 -12 21 -9 13 8 1 24 -18 24 -13 0 -13 -3 -3 -15z"/>
<path d="M1402 2083 c-31 -6 -25 -37 8 -39 30 -3 65 20 55 35 -6 11 -21 12
-63 4z"/>
<path d="M1000 1990 c0 -19 3 -21 12 -12 9 9 9 15 0 24 -9 9 -12 7 -12 -12z"/>
<path d="M6267 1961 c11 -30 25 -41 54 -41 19 0 29 5 29 14 0 18 -13 26 -55
36 -28 6 -33 5 -28 -9z"/>
<path d="M6400 1796 c0 -9 5 -16 10 -16 6 0 10 4 10 9 0 6 -4 13 -10 16 -5 3
-10 -1 -10 -9z"/>
<path d="M3785 430 c-3 -5 -1 -10 4 -10 6 0 11 5 11 10 0 6 -2 10 -4 10 -3 0
-8 -4 -11 -10z"/>
</g>
</svg>
